<svg width="154" height="150" viewBox="0 0 154 150" fill="none" xmlns="http://www.w3.org/2000/svg">
<g opacity="0.3" filter="url(#filter0_i_2049_37273)">
<path fill-rule="evenodd" clip-rule="evenodd" d="M70.0498 13.0127C102.325 13.5425 143.034 36.0493 152.013 67.0851C160.136 95.1645 131.339 112.826 107.013 129.002C85.5178 143.296 61.8654 157.554 40.5126 143.048C17.5135 112.002 -3.96516 91.1019 3.5141 62.5024C12.0796 29.7493 36.2303 12.4575 70.0498 13.0127Z" fill="#F4ACBA"/>
</g>
<g filter="url(#filter1_i_2049_37273)">
<path fill-rule="evenodd" clip-rule="evenodd" d="M53.6643 45.5824C53.6761 44.3665 54.4731 43.3276 55.3908 42.5298C56.6561 41.4297 57.4561 39.8083 57.4561 38C57.4561 34.6863 54.7698 32 51.4561 32C48.1423 32 45.4561 34.6863 45.4561 38C45.4561 40.1184 46.5539 41.9804 48.2117 43.0481C49.1623 43.6602 49.9619 44.6097 49.951 45.7403C49.9385 47.0243 48.9139 48.0434 47.708 48.4845C45.6532 49.236 43.9928 50.8062 43.1217 52.8001C42.577 54.0468 41.4833 55.1025 40.123 55.1133C38.9529 55.1226 37.9567 54.3303 37.253 53.3954C36.1582 51.9407 34.417 51 32.4561 51C29.1423 51 26.4561 53.6863 26.4561 57C26.4561 60.3137 29.1423 63 32.4561 63C34.4363 63 36.1926 62.0406 37.2853 60.5613C38.0951 59.465 39.2209 58.4771 40.5838 58.4662L40.6318 58.4659C41.9441 58.4554 43.0654 59.3367 43.7929 60.429C45.2266 62.5816 47.6757 64 50.4561 64C50.881 64 51.2982 63.9669 51.7052 63.903C52.399 63.7943 53.1264 64.0211 53.5357 64.5917C54.0118 65.2555 53.9177 66.1655 53.3542 66.7569C49.08 71.2426 46.4561 77.3148 46.4561 84C46.4561 94.0809 52.4227 102.768 61.0171 106.723C62.0301 107.189 62.6103 108.305 62.309 109.378L61.9585 110.628C61.8959 110.851 61.6878 111 61.4561 111C56.4855 111 52.4561 115.029 52.4561 120C52.4561 124.971 56.4855 129 61.4561 129C66.4266 129 70.4561 124.971 70.4561 120C70.4561 117.676 69.575 115.557 68.1286 113.96C67.3899 113.145 66.9692 112.035 67.2666 110.976C67.6244 109.701 68.8715 108.903 70.1942 108.969C70.6122 108.989 71.0329 109 71.4561 109C85.2632 109 96.4561 97.8071 96.4561 84C96.4561 82.5546 97.3718 81.2279 98.7745 80.8791L104.569 79.4383C105.319 79.252 106.101 79.3921 106.83 79.6445C107.497 79.8749 108.212 80 108.956 80C110.309 80 111.565 79.5869 112.605 78.88C113.054 78.5749 113.641 78.5075 114.105 78.7891C114.647 79.1179 114.835 79.8036 114.668 80.415C114.53 80.9199 114.456 81.4513 114.456 82C114.456 85.3137 117.142 88 120.456 88C123.77 88 126.456 85.3137 126.456 82C126.456 78.6863 123.77 76 120.456 76C119.808 76 119.183 76.1029 118.598 76.2932C117.907 76.5181 117.138 76.5316 116.517 76.1545C115.734 75.6798 115.404 74.7357 115.448 73.8218C115.453 73.7152 115.456 73.6079 115.456 73.5C115.456 73.2056 115.436 72.9158 115.399 72.6318C115.272 71.6808 115.328 70.6788 115.848 69.8724L117.567 67.2065C117.652 67.0751 117.8 67 117.956 67C120.994 67 123.456 64.5376 123.456 61.5C123.456 58.4624 120.994 56 117.956 56C114.918 56 112.456 58.4624 112.456 61.5C112.456 62.5671 112.76 63.5633 113.286 64.4066C113.71 65.0869 113.841 65.9622 113.407 66.6361C112.905 67.4149 111.867 67.6125 110.986 67.3233C110.347 67.1135 109.665 67 108.956 67C105.366 67 102.456 69.9101 102.456 73.5C102.456 73.7038 102.322 73.8864 102.125 73.9355L97.6916 75.0378C96.1904 75.411 94.6688 74.5712 93.9983 73.1772C89.964 64.7895 81.3861 59 71.4561 59C67.5108 59 63.779 59.9139 60.4608 61.5415C59.6247 61.9516 58.6 61.7357 58.0572 60.979C57.6403 60.3979 57.6218 59.6324 57.8873 58.9684C58.2542 58.0505 58.4561 57.0488 58.4561 56C58.4561 53.4223 57.2369 51.1293 55.3437 49.6662C54.3893 48.9286 53.6421 47.8722 53.6538 46.666L53.6643 45.5824Z" fill="#F197A8"/>
</g>
<g filter="url(#filter2_i_2049_37273)">
<path fill-rule="evenodd" clip-rule="evenodd" d="M53.6713 44.8625C53.6837 43.581 54.5721 42.5056 55.5432 41.6693C56.7145 40.6607 57.4561 39.167 57.4561 37.5C57.4561 34.4624 54.9936 32 51.9561 32C48.9185 32 46.4561 34.4624 46.4561 37.5C46.4561 39.3111 47.3314 40.9177 48.6821 41.9198C49.8607 42.7943 50.9874 43.993 50.9731 45.4605L50.9654 46.2572C50.9502 47.818 49.6867 49.047 48.2947 49.7529C47.0425 50.3878 46.0069 51.3882 45.3282 52.6136C44.6032 53.9228 43.4025 55.0874 41.9059 55.0993L40.6297 55.1095C39.2514 55.1205 38.1037 54.1202 37.2378 53.0477C36.2296 51.7988 34.6861 51 32.9561 51C29.9185 51 27.4561 53.4624 27.4561 56.5C27.4561 59.5376 29.9185 62 32.9561 62C34.7398 62 36.3253 61.1508 37.3302 59.8347C38.1808 58.7206 39.3249 57.6692 40.7265 57.658L42.257 57.6459C43.6551 57.6347 44.8216 58.6397 45.5839 59.8118C46.8323 61.731 48.996 63 51.4561 63C51.565 63 51.6734 62.9975 51.7812 62.9926C53.1633 62.9294 54.6413 63.2854 55.4478 64.4096L56.9114 66.4498C57.7978 67.6855 57.6004 69.3754 56.6119 70.5309C53.3974 74.2884 51.4561 79.1675 51.4561 84.5C51.4561 92.6668 56.0095 99.77 62.716 103.41C64.0741 104.146 64.8683 105.689 64.4508 107.176L63.2606 111.418C63.1613 111.772 62.8236 112 62.4561 112C58.5901 112 55.4561 115.134 55.4561 119C55.4561 122.866 58.5901 126 62.4561 126C66.322 126 69.4561 122.866 69.4561 119C69.4561 117.424 68.9351 115.969 68.0559 114.799C67.3034 113.798 66.8023 112.542 67.1408 111.336L68.0036 108.261C68.4268 106.753 69.9396 105.847 71.5024 105.952C71.9828 105.984 72.4675 106 72.9561 106C84.8302 106 94.4561 96.3741 94.4561 84.5C94.4561 84.2465 94.4517 83.9941 94.443 83.7427C94.3889 82.1809 95.3392 80.7013 96.8558 80.3242L105.253 78.2363C106.132 78.0177 107.046 78.2553 107.885 78.5966C108.524 78.8567 109.223 79 109.956 79C110.582 79 111.183 78.8955 111.744 78.7029C112.782 78.3463 113.959 78.2135 114.898 78.7829L115.106 78.9093C116.12 79.5248 116.456 80.8136 116.456 82C116.456 84.7614 118.695 87 121.456 87C124.217 87 126.456 84.7614 126.456 82C126.456 79.2386 124.217 77 121.456 77C120.946 77 120.454 77.0763 119.991 77.2181C118.974 77.5294 117.832 77.6562 116.923 77.1042C115.783 76.4126 115.427 74.9491 115.455 73.6164C115.456 73.5777 115.456 73.5389 115.456 73.5C115.456 73.1697 115.427 72.8463 115.371 72.532C115.178 71.4465 115.15 70.2745 115.748 69.3479L117.439 66.7237C117.761 66.2244 118.362 66 118.956 66C121.441 66 123.456 63.9853 123.456 61.5C123.456 59.0147 121.441 57 118.956 57C116.471 57 114.456 59.0147 114.456 61.5C114.456 61.9122 114.511 62.3115 114.615 62.6908C114.962 63.9561 115.208 65.3949 114.497 66.4975C113.647 67.8163 111.849 68.1013 110.283 68.0095C110.175 68.0032 110.066 68 109.956 68C106.918 68 104.456 70.4624 104.456 73.5C104.456 74.4444 103.949 75.4143 103.033 75.6422L96.199 77.3413C94.6612 77.7237 93.111 76.8315 92.4392 75.3963C89.0114 68.073 81.5762 63 72.9561 63C69.8477 63 66.8935 63.6596 64.2256 64.8465C62.7901 65.4851 61.0519 65.1537 60.1361 63.8771L58.4886 61.5805C57.7594 60.564 57.8013 59.2149 58.1612 58.0168C58.353 57.3781 58.4561 56.7011 58.4561 56C58.4561 53.6749 57.3225 51.6146 55.5778 50.3416C54.5201 49.5698 53.6364 48.4531 53.6491 47.1439L53.6713 44.8625Z" fill="#E7758B"/>
</g>
<g style="mix-blend-mode:multiply" filter="url(#filter3_i_2049_37273)">
<path fill-rule="evenodd" clip-rule="evenodd" d="M56.4561 38C56.4561 39.0936 56.0172 40.0846 55.3061 40.8067C54.2795 41.849 53.082 43.02 53.0678 44.483L53.0279 48.5984C53.0138 50.0471 54.1128 51.2357 55.2687 52.1091C56.5974 53.1131 57.4561 54.7063 57.4561 56.5C57.4561 56.965 57.3984 57.4165 57.2897 57.8478C56.9675 59.1268 56.8564 60.5652 57.6252 61.6369L61.5289 67.0787C62.5158 68.4544 64.4376 68.715 65.9422 67.9386C68.3432 66.6996 71.0679 66 73.9561 66C81.1032 66 87.2496 70.2845 89.967 76.4251C90.6373 77.94 92.2416 78.935 93.8492 78.5353L105.358 75.6739C106.07 75.4969 106.456 74.7336 106.456 74C106.456 71.7909 108.247 70 110.456 70C111.661 70 113.039 69.7436 113.663 68.7126L116.074 64.7299C116.724 63.6558 116.456 62.2555 116.456 61C116.456 59.3431 117.799 58 119.456 58C121.113 58 122.456 59.3431 122.456 61C122.456 62.6569 121.113 64 119.456 64C118.713 64 117.9 64.2025 117.515 64.8381L114.634 69.5971C113.97 70.6948 114.202 72.0934 114.405 73.3603C114.439 73.5686 114.456 73.7823 114.456 74C114.456 74.9902 114.725 76.0742 115.572 76.5879L117.542 77.7838C118.709 78.4915 120.224 78.1648 121.58 78.02C121.704 78.0068 121.829 78 121.956 78C123.889 78 125.456 79.567 125.456 81.5C125.456 83.433 123.889 85 121.956 85C120.023 85 118.456 83.433 118.456 81.5C118.456 80.6413 118.22 79.7028 117.486 79.2573L115.427 78.0074C114.22 77.2749 112.661 77.6261 111.279 77.9152C111.014 77.9708 110.738 78 110.456 78C109.969 78 109.501 77.9128 109.069 77.7531C108.097 77.3936 107.058 77.0219 106.052 77.272L93.7574 80.3288C92.3464 80.6796 91.4561 82.046 91.4561 83.5C91.4561 93.165 83.621 101 73.9561 101C73.4613 101 72.9713 100.979 72.4869 100.939C70.8622 100.804 69.2465 101.707 68.806 103.277L66.4571 111.647C66.0959 112.934 66.7105 114.265 67.4739 115.362C68.0931 116.252 68.4561 117.334 68.4561 118.5C68.4561 121.538 65.9936 124 62.9561 124C59.9185 124 57.4561 121.538 57.4561 118.5C57.4561 115.462 59.9185 113 62.9561 113C63.6849 113 64.4057 112.598 64.6026 111.896L67.2055 102.62C67.6291 101.111 66.8012 99.5524 65.4323 98.7875C60.077 95.7951 56.4561 90.0704 56.4561 83.5C56.4561 79.3982 57.8673 75.626 60.2306 72.6424C61.1669 71.4604 61.3583 69.7888 60.4794 68.5635L56.7922 63.4236C55.839 62.0949 53.9592 61.8788 52.3275 61.9877C52.2048 61.9958 52.0809 62 51.9561 62C50.0827 62 48.4281 61.0634 47.4349 59.6329C46.5606 58.3734 45.3297 57.1451 43.7965 57.1573L40.2785 57.1852C38.6905 57.1979 37.4515 58.6003 36.3585 59.7524C35.6296 60.5208 34.5988 61 33.4561 61C31.2469 61 29.4561 59.2091 29.4561 57C29.4561 54.7909 31.2469 53 33.4561 53C34.4721 53 35.3996 53.3788 36.1051 54.0029C37.1197 54.9003 38.2489 55.9126 39.6033 55.9018L43.8497 55.8681C45.3611 55.856 46.5614 54.6419 47.4157 53.3951C47.8412 52.774 48.3909 52.2446 49.0289 51.8428C50.379 50.9925 51.7278 49.7547 51.7433 48.1593L51.7787 44.5201C51.7931 43.0397 50.5911 41.8357 49.5671 40.7665C48.8789 40.0481 48.4561 39.0734 48.4561 38C48.4561 35.7909 50.2469 34 52.4561 34C54.6652 34 56.4561 35.7909 56.4561 38Z" fill="#E7758B" fill-opacity="0.42"/>
</g>
<path d="M72.7332 66C89.3487 66 91.4561 78.7273 91.4561 85.0909C90.9022 90.3939 86.0337 101 74.0705 101C59.1165 101 54.4561 89.8636 54.4561 85.0909" stroke="url(#paint0_linear_2049_37273)" stroke-opacity="0.7" stroke-width="1.5" stroke-linecap="round"/>
<path d="M71.685 64C91.8931 64 94.4561 79.2727 94.4561 86.9091C93.7825 93.2727 87.8613 106 73.3115 106C55.1242 106 49.4561 92.6364 49.4561 86.9091" stroke="url(#paint1_linear_2049_37273)" stroke-opacity="0.7" stroke-linecap="round"/>
<path fill-rule="evenodd" clip-rule="evenodd" d="M21.8263 80.7582C23.3532 80.6532 24.7301 81.4723 25.4098 82.7385C25.6313 83.1511 26.0432 83.46 26.5107 83.4324L31.1297 83.1598C31.6306 83.1303 32.0215 82.7302 32.1426 82.2433C32.6667 80.1362 34.4988 78.5121 36.7817 78.3551C39.6153 78.1603 42.0704 80.2994 42.2653 83.1331C42.4287 85.5098 40.9502 87.6202 38.7971 88.3539C38.3001 88.5233 37.9232 88.9789 37.9634 89.5024L38.3004 93.8923C38.3389 94.3939 38.7505 94.7747 39.2331 94.9165C40.7038 95.3487 41.8211 96.6585 41.9324 98.2773C42.0753 100.355 40.5066 102.156 38.4286 102.299C36.3506 102.442 34.5502 100.873 34.4073 98.7948C34.2985 97.2128 35.1818 95.7917 36.5266 95.1404C36.974 94.9237 37.3145 94.488 37.2764 93.9923L36.9315 89.4992C36.893 88.9977 36.4843 88.6134 35.9938 88.502C34.2283 88.1012 32.7861 86.7857 32.2337 85.049C32.0742 84.5475 31.6248 84.161 31.0994 84.192L26.8034 84.4455C26.2726 84.4768 25.8732 84.9251 25.7436 85.4408C25.3564 86.9817 24.0147 88.1684 22.3438 88.2833C20.2658 88.4262 18.4654 86.8575 18.3225 84.7795C18.1796 82.7015 19.7483 80.9011 21.8263 80.7582Z" fill="url(#paint2_linear_2049_37273)"/>
<path fill-rule="evenodd" clip-rule="evenodd" d="M106.115 46.4283C104.692 46.9923 103.132 46.6305 102.099 45.6308C101.763 45.305 101.277 45.1359 100.84 45.3042L96.5208 46.9682C96.0527 47.1486 95.8018 47.6486 95.8344 48.1493C95.9755 50.3159 94.7237 52.4199 92.5965 53.2633C89.9561 54.3102 86.967 53.0184 85.9202 50.378C85.0421 48.1633 85.8094 45.7031 87.6379 44.3498C88.06 44.0373 88.2806 43.4888 88.0832 43.0022L86.428 38.9225C86.2389 38.4564 85.731 38.2186 85.2281 38.2302C83.6954 38.2656 82.2328 37.3573 81.6347 35.8488C80.867 33.9126 81.8143 31.7206 83.7506 30.9529C85.6868 30.1852 87.8788 31.1325 88.6465 33.0688C89.2309 34.5428 88.8215 36.165 87.7384 37.1942C87.3781 37.5367 87.1861 38.0551 87.373 38.5158L89.0673 42.6919C89.2564 43.158 89.7626 43.3999 90.2637 43.3569C92.0673 43.2023 93.8409 44.0173 94.8949 45.5039C95.1993 45.9333 95.7449 46.1649 96.236 45.9757L100.253 44.428C100.749 44.2369 100.993 43.6885 100.96 43.1578C100.861 41.572 101.778 40.0337 103.335 39.4164C105.271 38.6487 107.463 39.596 108.231 41.5323C108.999 43.4686 108.051 45.6606 106.115 46.4283Z" fill="url(#paint3_linear_2049_37273)"/>
<path fill-rule="evenodd" clip-rule="evenodd" d="M98.0166 106.296C98.7684 104.963 100.21 104.263 101.641 104.392C102.108 104.434 102.592 104.259 102.826 103.854L105.138 99.8446C105.389 99.41 105.27 98.8634 104.93 98.4946C103.458 96.8984 103.108 94.4752 104.232 92.4819C105.628 90.0078 108.764 89.1332 111.238 90.5283C113.314 91.6986 114.264 94.0943 113.692 96.2964C113.56 96.8048 113.734 97.3701 114.193 97.6244L118.045 99.7561C118.485 99.9997 119.029 99.8653 119.413 99.5401C120.583 98.5491 122.291 98.3359 123.705 99.133C125.519 100.156 126.16 102.456 125.137 104.271C124.114 106.085 121.814 106.726 120 105.703C118.618 104.924 117.917 103.405 118.112 101.924C118.177 101.431 118.001 100.907 117.566 100.666L113.623 98.4843C113.183 98.2408 112.637 98.3708 112.274 98.7192C110.969 99.9732 109.078 100.454 107.323 99.961C106.817 99.8186 106.247 99.9815 105.984 100.437L103.833 104.166C103.568 104.627 103.722 105.207 104.082 105.599C105.156 106.769 105.41 108.542 104.587 110.001C103.564 111.816 101.264 112.457 99.4493 111.434C97.635 110.411 96.9935 108.111 98.0166 106.296Z" fill="url(#paint4_linear_2049_37273)"/>
<g filter="url(#filter4_i_2049_37273)">
<circle cx="131.327" cy="8.12884" r="3.21714" transform="rotate(-20.1616 131.327 8.12884)" fill="#F4ACBA"/>
</g>
<g filter="url(#filter5_i_2049_37273)">
<circle cx="4.5177" cy="125.518" r="3.57459" transform="rotate(18.3347 4.5177 125.518)" fill="#F4ACBA"/>
</g>
<g filter="url(#filter6_i_2049_37273)">
<circle cx="37.0657" cy="4.06583" r="3.21714" transform="rotate(18.3347 37.0657 4.06583)" fill="#F4ACBA"/>
</g>
<defs>
<filter id="filter0_i_2049_37273" x="2" y="12.9998" width="153.414" height="140.114" filterUnits="userSpaceOnUse" color-interpolation-filters="sRGB">
<feFlood flood-opacity="0" result="BackgroundImageFix"/>
<feBlend mode="normal" in="SourceGraphic" in2="BackgroundImageFix" result="shape"/>
<feColorMatrix in="SourceAlpha" type="matrix" values="0 0 0 0 0 0 0 0 0 0 0 0 0 0 0 0 0 0 127 0" result="hardAlpha"/>
<feOffset dx="2" dy="8"/>
<feGaussianBlur stdDeviation="2"/>
<feComposite in2="hardAlpha" operator="arithmetic" k2="-1" k3="1"/>
<feColorMatrix type="matrix" values="0 0 0 0 0.991667 0 0 0 0 0.545417 0 0 0 0 0.65984 0 0 0 1 0"/>
<feBlend mode="multiply" in2="shape" result="effect1_innerShadow_2049_37273"/>
</filter>
<filter id="filter1_i_2049_37273" x="26.4561" y="32" width="104" height="99" filterUnits="userSpaceOnUse" color-interpolation-filters="sRGB">
<feFlood flood-opacity="0" result="BackgroundImageFix"/>
<feBlend mode="normal" in="SourceGraphic" in2="BackgroundImageFix" result="shape"/>
<feColorMatrix in="SourceAlpha" type="matrix" values="0 0 0 0 0 0 0 0 0 0 0 0 0 0 0 0 0 0 127 0" result="hardAlpha"/>
<feOffset dx="4" dy="2"/>
<feGaussianBlur stdDeviation="2"/>
<feComposite in2="hardAlpha" operator="arithmetic" k2="-1" k3="1"/>
<feColorMatrix type="matrix" values="0 0 0 0 0.945098 0 0 0 0 0.592157 0 0 0 0 0.658824 0 0 0 0.55 0"/>
<feBlend mode="multiply" in2="shape" result="effect1_innerShadow_2049_37273"/>
</filter>
<filter id="filter2_i_2049_37273" x="27.4561" y="32" width="103" height="96" filterUnits="userSpaceOnUse" color-interpolation-filters="sRGB">
<feFlood flood-opacity="0" result="BackgroundImageFix"/>
<feBlend mode="normal" in="SourceGraphic" in2="BackgroundImageFix" result="shape"/>
<feColorMatrix in="SourceAlpha" type="matrix" values="0 0 0 0 0 0 0 0 0 0 0 0 0 0 0 0 0 0 127 0" result="hardAlpha"/>
<feOffset dx="4" dy="2"/>
<feGaussianBlur stdDeviation="2"/>
<feComposite in2="hardAlpha" operator="arithmetic" k2="-1" k3="1"/>
<feColorMatrix type="matrix" values="0 0 0 0 0.945098 0 0 0 0 0.592157 0 0 0 0 0.658824 0 0 0 0.55 0"/>
<feBlend mode="multiply" in2="shape" result="effect1_innerShadow_2049_37273"/>
</filter>
<filter id="filter3_i_2049_37273" x="29.4561" y="34" width="100" height="92" filterUnits="userSpaceOnUse" color-interpolation-filters="sRGB">
<feFlood flood-opacity="0" result="BackgroundImageFix"/>
<feBlend mode="normal" in="SourceGraphic" in2="BackgroundImageFix" result="shape"/>
<feColorMatrix in="SourceAlpha" type="matrix" values="0 0 0 0 0 0 0 0 0 0 0 0 0 0 0 0 0 0 127 0" result="hardAlpha"/>
<feOffset dx="4" dy="2"/>
<feGaussianBlur stdDeviation="2"/>
<feComposite in2="hardAlpha" operator="arithmetic" k2="-1" k3="1"/>
<feColorMatrix type="matrix" values="0 0 0 0 0.945098 0 0 0 0 0.592157 0 0 0 0 0.658824 0 0 0 0.55 0"/>
<feBlend mode="multiply" in2="shape" result="effect1_innerShadow_2049_37273"/>
</filter>
<filter id="filter4_i_2049_37273" x="128.108" y="4.91083" width="8.43604" height="8.43604" filterUnits="userSpaceOnUse" color-interpolation-filters="sRGB">
<feFlood flood-opacity="0" result="BackgroundImageFix"/>
<feBlend mode="normal" in="SourceGraphic" in2="BackgroundImageFix" result="shape"/>
<feColorMatrix in="SourceAlpha" type="matrix" values="0 0 0 0 0 0 0 0 0 0 0 0 0 0 0 0 0 0 127 0" result="hardAlpha"/>
<feOffset dx="3" dy="3"/>
<feGaussianBlur stdDeviation="1"/>
<feComposite in2="hardAlpha" operator="arithmetic" k2="-1" k3="1"/>
<feColorMatrix type="matrix" values="0 0 0 0 1 0 0 0 0 0.679167 0 0 0 0 0.761432 0 0 0 1 0"/>
<feBlend mode="multiply" in2="shape" result="effect1_innerShadow_2049_37273"/>
</filter>
<filter id="filter5_i_2049_37273" x="0.941895" y="121.942" width="9.15137" height="9.15112" filterUnits="userSpaceOnUse" color-interpolation-filters="sRGB">
<feFlood flood-opacity="0" result="BackgroundImageFix"/>
<feBlend mode="normal" in="SourceGraphic" in2="BackgroundImageFix" result="shape"/>
<feColorMatrix in="SourceAlpha" type="matrix" values="0 0 0 0 0 0 0 0 0 0 0 0 0 0 0 0 0 0 127 0" result="hardAlpha"/>
<feOffset dx="3" dy="3"/>
<feGaussianBlur stdDeviation="1"/>
<feComposite in2="hardAlpha" operator="arithmetic" k2="-1" k3="1"/>
<feColorMatrix type="matrix" values="0 0 0 0 1 0 0 0 0 0.679167 0 0 0 0 0.761432 0 0 0 1 0"/>
<feBlend mode="multiply" in2="shape" result="effect1_innerShadow_2049_37273"/>
</filter>
<filter id="filter6_i_2049_37273" x="33.8477" y="0.847824" width="8.43604" height="8.43602" filterUnits="userSpaceOnUse" color-interpolation-filters="sRGB">
<feFlood flood-opacity="0" result="BackgroundImageFix"/>
<feBlend mode="normal" in="SourceGraphic" in2="BackgroundImageFix" result="shape"/>
<feColorMatrix in="SourceAlpha" type="matrix" values="0 0 0 0 0 0 0 0 0 0 0 0 0 0 0 0 0 0 127 0" result="hardAlpha"/>
<feOffset dx="3" dy="3"/>
<feGaussianBlur stdDeviation="1"/>
<feComposite in2="hardAlpha" operator="arithmetic" k2="-1" k3="1"/>
<feColorMatrix type="matrix" values="0 0 0 0 1 0 0 0 0 0.679167 0 0 0 0 0.761432 0 0 0 1 0"/>
<feBlend mode="multiply" in2="shape" result="effect1_innerShadow_2049_37273"/>
</filter>
<linearGradient id="paint0_linear_2049_37273" x1="92.4561" y1="106" x2="80.625" y2="93.7104" gradientUnits="userSpaceOnUse">
<stop offset="0.00520833" stop-color="white" stop-opacity="0"/>
<stop offset="0.454048" stop-color="white"/>
<stop offset="1" stop-color="white" stop-opacity="0"/>
</linearGradient>
<linearGradient id="paint1_linear_2049_37273" x1="90.9561" y1="111.5" x2="80.801" y2="97.443" gradientUnits="userSpaceOnUse">
<stop offset="0.00520833" stop-color="white" stop-opacity="0"/>
<stop offset="0.454048" stop-color="white"/>
<stop offset="1" stop-color="white" stop-opacity="0"/>
</linearGradient>
<linearGradient id="paint2_linear_2049_37273" x1="3.45605" y1="98.5" x2="39.9669" y2="116.452" gradientUnits="userSpaceOnUse">
<stop offset="0.00520833" stop-color="white" stop-opacity="0"/>
<stop offset="0.454048" stop-color="white"/>
<stop offset="1" stop-color="white" stop-opacity="0"/>
</linearGradient>
<linearGradient id="paint3_linear_2049_37273" x1="105.956" y1="44.5" x2="79.4323" y2="36.8309" gradientUnits="userSpaceOnUse">
<stop offset="0.00520833" stop-color="white" stop-opacity="0"/>
<stop offset="0.454048" stop-color="white"/>
<stop offset="1" stop-color="white" stop-opacity="0"/>
</linearGradient>
<linearGradient id="paint4_linear_2049_37273" x1="127.456" y1="134.5" x2="144.41" y2="92.2116" gradientUnits="userSpaceOnUse">
<stop offset="0.00520833" stop-color="white" stop-opacity="0"/>
<stop offset="0.454048" stop-color="white"/>
<stop offset="1" stop-color="white" stop-opacity="0"/>
</linearGradient>
</defs>
</svg>
