<svg width="197" height="172" viewBox="0 0 197 172" fill="none" xmlns="http://www.w3.org/2000/svg">
<g opacity="0.3" filter="url(#filter0_i_2049_37272)">
<path fill-rule="evenodd" clip-rule="evenodd" d="M100.947 10.0199C137.806 10.6235 173.063 34.5782 183.317 69.931C192.594 101.916 176.991 125.655 149.21 144.081C133.222 154.686 71.2327 150.813 46.8479 134.29C18.9396 115.379 18.2697 93.6207 26.811 61.0431C36.5928 23.7341 62.3254 9.38755 100.947 10.0199Z" fill="#F4ACBA"/>
</g>
<g style="mix-blend-mode:multiply">
<g filter="url(#filter1_i_2049_37272)">
<path fill-rule="evenodd" clip-rule="evenodd" d="M141.695 61.6865C145.684 61.6865 148.918 64.9205 148.918 68.9098C148.918 71.5098 147.544 73.7889 145.483 75.061C148.812 75.7054 151.326 78.6354 151.326 82.1525C151.326 85.788 148.64 88.7961 145.144 89.3012C147.406 90.6729 148.918 93.1585 148.918 95.9971C148.918 100.319 145.414 103.822 141.093 103.822L141.061 103.822C142.127 105.049 142.773 106.651 142.773 108.404C142.773 112.264 139.643 115.394 135.783 115.394L128.713 115.394C126.188 116.47 123.409 117.065 120.49 117.065L99.3547 117.065C92.838 117.065 86.8471 114.814 82.1173 111.046L60.0493 111.046C59.0593 111.046 58.1727 110.433 57.823 109.507C52.7786 96.1457 52.7786 81.4035 57.823 68.0421C58.1727 67.1158 59.0593 66.5029 60.0493 66.5029L80.9544 66.5029C82.1959 65.27 83.5512 64.1434 85.0083 63.1399L91.5955 58.6031C96.3387 55.3363 98.7908 49.6407 97.9039 43.95L96.399 34.2942C95.7381 30.0535 99.0174 26.2235 103.309 26.2235C106.142 26.2235 108.695 27.9325 109.775 30.5517L112.398 36.9131C114.633 42.3346 115.323 48.269 114.392 54.0587L113.166 61.6863L125.49 61.6863L125.572 61.6865L141.695 61.6865Z" fill="#F4ACBA"/>
</g>
<g filter="url(#filter2_i_2049_37272)">
<path fill-rule="evenodd" clip-rule="evenodd" d="M138.807 62.899C142.387 62.8939 145.284 65.7917 145.279 69.3714C145.276 71.9041 143.82 74.0995 141.701 75.169C145.077 75.8188 147.623 78.7883 147.618 82.357C147.613 85.8007 145.235 88.6931 142.033 89.4842C144.314 90.565 145.889 92.8891 145.885 95.5841C145.879 99.3149 142.851 102.344 139.12 102.349L138.021 102.351C138.847 103.438 139.337 104.795 139.335 106.268C139.33 109.848 136.423 112.754 132.844 112.759L124.246 112.771C122.474 113.26 120.607 113.522 118.681 113.525L98.9765 113.553C93.2288 113.561 87.9314 111.652 83.6877 108.429L64.3204 108.429C63.4276 108.429 62.6274 107.883 62.3032 107.052L62.2075 106.806C57.5701 94.9175 57.3993 81.7393 61.7268 69.7087C62.0337 68.8555 62.8433 68.2859 63.7492 68.2859L83.5221 68.2861C84.3991 67.6036 85.3219 66.9775 86.2852 66.413C87.1213 65.6948 88.0044 65.0267 88.9305 64.4139L95.5828 60.0117C100.177 56.9715 102.519 51.4863 101.532 46.0765L99.5348 35.1285C98.9987 32.1899 101.259 29.4769 104.248 29.4721C106.431 29.4686 108.336 30.9434 108.877 33.0569L111.167 41.9931C112.098 45.6249 112.354 49.3984 111.923 53.1265L110.791 62.9307L132.753 62.8993C132.868 62.8992 132.982 62.9018 133.096 62.9071L138.807 62.899Z" fill="#EC879A"/>
</g>
<g style="mix-blend-mode:multiply" filter="url(#filter3_i_2049_37272)">
<path fill-rule="evenodd" clip-rule="evenodd" d="M136.978 65.0021C140.274 64.9974 142.942 67.6651 142.937 70.9607C142.934 73.116 141.788 75.006 140.074 76.0572C142.963 76.7946 145.095 79.4135 145.09 82.5344C145.086 85.7794 142.773 88.4884 139.707 89.1059C141.85 90.0375 143.345 92.1734 143.342 94.6615C143.337 98.0102 140.618 100.729 137.27 100.734L136.097 100.735L136.075 100.769C136.944 101.805 137.466 103.141 137.464 104.601C137.46 107.897 134.784 110.572 131.489 110.577L120.64 110.593C119.778 110.594 118.959 110.412 118.22 110.085L101.239 110.109C95.9967 110.116 91.1783 108.321 87.3685 105.308L67.4723 105.047C66.7502 105.038 66.1075 104.59 65.849 103.917C61.8701 93.5473 62.0042 82.039 66.2239 71.7419L66.4118 71.2835C66.6927 70.5981 67.3601 70.15 68.0999 70.15L87.2576 70.1485L96.3818 63.9701C102.264 59.9873 105.405 53.0336 104.5 46.0002L102.644 37.0903C102.293 35.4056 103.417 33.764 105.117 33.4808C106.725 33.2128 108.253 34.2664 108.573 35.8637L110.309 44.5452C110.767 46.8348 110.864 49.1829 110.597 51.5046L109.005 65.3409L119.919 65.3253C120.508 65.1305 121.136 65.0247 121.789 65.0238L136.978 65.0021Z" fill="#E7758B" fill-opacity="0.42"/>
</g>
<path fill-rule="evenodd" clip-rule="evenodd" d="M141.256 76.7699C141.532 76.7701 141.755 76.5464 141.755 76.2703C141.755 75.9941 141.531 75.7701 141.255 75.7699L122.802 75.7578C120.086 75.756 117.883 73.5526 117.88 70.8367C117.878 68.1211 120.078 65.9216 122.793 65.9239L131.142 65.931C131.419 65.9313 131.642 65.7076 131.642 65.4315C131.642 65.1553 131.418 64.9313 131.142 64.931L122.792 64.9239C119.524 64.9212 116.878 67.568 116.88 70.8358C116.883 73.7841 119.041 76.2305 121.863 76.6829C119.668 77.8576 118.176 80.1734 118.178 82.8394C118.18 85.476 119.643 87.7725 121.801 88.9627C118.835 89.3256 116.541 91.8523 116.544 94.9173C116.545 97.0446 117.653 98.9145 119.323 99.9825C116.739 100.36 114.757 102.585 114.759 105.275C114.762 108.232 117.161 110.631 120.118 110.633L135.185 110.643L135.184 109.643L120.117 109.633C117.713 109.631 115.761 107.681 115.759 105.276C115.757 102.871 117.705 100.924 120.109 100.926L126.744 100.932L126.744 100.929L136.579 100.935L136.578 99.9353L122.553 99.9267C119.789 99.925 117.546 97.6824 117.544 94.9181C117.541 92.1543 119.78 89.9156 122.544 89.918L128.303 89.9229L128.303 89.8303L141.285 89.8382L141.283 88.8382L125.167 88.8284C121.863 88.8264 119.181 86.1451 119.178 82.8402C119.175 79.5359 121.851 76.8594 125.156 76.8622L131.707 76.8678L131.707 76.7636L141.256 76.7699Z" fill="url(#paint0_linear_2049_37272)" fill-opacity="0.38"/>
</g>
<g filter="url(#filter4_i_2049_37272)">
<circle cx="59.2488" cy="163.693" r="3.21714" transform="rotate(147.428 59.2488 163.693)" fill="#F4ACBA"/>
</g>
<g filter="url(#filter5_i_2049_37272)">
<circle cx="17.6712" cy="34.6717" r="6.07681" transform="rotate(-174.076 17.6712 34.6717)" fill="#F4ACBA"/>
</g>
<g filter="url(#filter6_i_2049_37272)">
<circle cx="11.9243" cy="90.9662" r="3.57459" transform="rotate(-174.076 11.9243 90.9662)" fill="#F4ACBA"/>
</g>
<g filter="url(#filter7_i_2049_37272)">
<circle cx="186.204" cy="13.532" r="3.21714" transform="rotate(-174.076 186.204 13.532)" fill="#F4ACBA"/>
</g>
<defs>
<filter id="filter0_i_2049_37272" x="22" y="10" width="166" height="144" filterUnits="userSpaceOnUse" color-interpolation-filters="sRGB">
<feFlood flood-opacity="0" result="BackgroundImageFix"/>
<feBlend mode="normal" in="SourceGraphic" in2="BackgroundImageFix" result="shape"/>
<feColorMatrix in="SourceAlpha" type="matrix" values="0 0 0 0 0 0 0 0 0 0 0 0 0 0 0 0 0 0 127 0" result="hardAlpha"/>
<feOffset dx="2" dy="8"/>
<feGaussianBlur stdDeviation="2"/>
<feComposite in2="hardAlpha" operator="arithmetic" k2="-1" k3="1"/>
<feColorMatrix type="matrix" values="0 0 0 0 0.991667 0 0 0 0 0.545417 0 0 0 0 0.65984 0 0 0 1 0"/>
<feBlend mode="multiply" in2="shape" result="effect1_innerShadow_2049_37272"/>
</filter>
<filter id="filter1_i_2049_37272" x="54.0396" y="26.2235" width="101.286" height="92.8413" filterUnits="userSpaceOnUse" color-interpolation-filters="sRGB">
<feFlood flood-opacity="0" result="BackgroundImageFix"/>
<feBlend mode="normal" in="SourceGraphic" in2="BackgroundImageFix" result="shape"/>
<feColorMatrix in="SourceAlpha" type="matrix" values="0 0 0 0 0 0 0 0 0 0 0 0 0 0 0 0 0 0 127 0" result="hardAlpha"/>
<feOffset dx="4" dy="2"/>
<feGaussianBlur stdDeviation="2"/>
<feComposite in2="hardAlpha" operator="arithmetic" k2="-1" k3="1"/>
<feColorMatrix type="matrix" values="0 0 0 0 0.945098 0 0 0 0 0.592157 0 0 0 0 0.658824 0 0 0 0.55 0"/>
<feBlend mode="multiply" in2="shape" result="effect1_innerShadow_2049_37272"/>
</filter>
<filter id="filter2_i_2049_37272" x="58.6011" y="29.4721" width="93.0171" height="86.0807" filterUnits="userSpaceOnUse" color-interpolation-filters="sRGB">
<feFlood flood-opacity="0" result="BackgroundImageFix"/>
<feBlend mode="normal" in="SourceGraphic" in2="BackgroundImageFix" result="shape"/>
<feColorMatrix in="SourceAlpha" type="matrix" values="0 0 0 0 0 0 0 0 0 0 0 0 0 0 0 0 0 0 127 0" result="hardAlpha"/>
<feOffset dx="4" dy="2"/>
<feGaussianBlur stdDeviation="2"/>
<feComposite in2="hardAlpha" operator="arithmetic" k2="-1" k3="1"/>
<feColorMatrix type="matrix" values="0 0 0 0 0.945098 0 0 0 0 0.592157 0 0 0 0 0.658824 0 0 0 0.55 0"/>
<feBlend mode="multiply" in2="shape" result="effect1_innerShadow_2049_37272"/>
</filter>
<filter id="filter3_i_2049_37272" x="62.959" y="33.4392" width="86.1313" height="79.1533" filterUnits="userSpaceOnUse" color-interpolation-filters="sRGB">
<feFlood flood-opacity="0" result="BackgroundImageFix"/>
<feBlend mode="normal" in="SourceGraphic" in2="BackgroundImageFix" result="shape"/>
<feColorMatrix in="SourceAlpha" type="matrix" values="0 0 0 0 0 0 0 0 0 0 0 0 0 0 0 0 0 0 127 0" result="hardAlpha"/>
<feOffset dx="4" dy="2"/>
<feGaussianBlur stdDeviation="2"/>
<feComposite in2="hardAlpha" operator="arithmetic" k2="-1" k3="1"/>
<feColorMatrix type="matrix" values="0 0 0 0 0.945098 0 0 0 0 0.592157 0 0 0 0 0.658824 0 0 0 0.55 0"/>
<feBlend mode="multiply" in2="shape" result="effect1_innerShadow_2049_37272"/>
</filter>
<filter id="filter4_i_2049_37272" x="56.0312" y="160.475" width="8.43506" height="8.43509" filterUnits="userSpaceOnUse" color-interpolation-filters="sRGB">
<feFlood flood-opacity="0" result="BackgroundImageFix"/>
<feBlend mode="normal" in="SourceGraphic" in2="BackgroundImageFix" result="shape"/>
<feColorMatrix in="SourceAlpha" type="matrix" values="0 0 0 0 0 0 0 0 0 0 0 0 0 0 0 0 0 0 127 0" result="hardAlpha"/>
<feOffset dx="3" dy="3"/>
<feGaussianBlur stdDeviation="1"/>
<feComposite in2="hardAlpha" operator="arithmetic" k2="-1" k3="1"/>
<feColorMatrix type="matrix" values="0 0 0 0 1 0 0 0 0 0.679167 0 0 0 0 0.761432 0 0 0 1 0"/>
<feBlend mode="multiply" in2="shape" result="effect1_innerShadow_2049_37272"/>
</filter>
<filter id="filter5_i_2049_37272" x="11.5938" y="28.5944" width="14.1548" height="14.1546" filterUnits="userSpaceOnUse" color-interpolation-filters="sRGB">
<feFlood flood-opacity="0" result="BackgroundImageFix"/>
<feBlend mode="normal" in="SourceGraphic" in2="BackgroundImageFix" result="shape"/>
<feColorMatrix in="SourceAlpha" type="matrix" values="0 0 0 0 0 0 0 0 0 0 0 0 0 0 0 0 0 0 127 0" result="hardAlpha"/>
<feOffset dx="3" dy="3"/>
<feGaussianBlur stdDeviation="1"/>
<feComposite in2="hardAlpha" operator="arithmetic" k2="-1" k3="1"/>
<feColorMatrix type="matrix" values="0 0 0 0 1 0 0 0 0 0.679167 0 0 0 0 0.761432 0 0 0 1 0"/>
<feBlend mode="multiply" in2="shape" result="effect1_innerShadow_2049_37272"/>
</filter>
<filter id="filter6_i_2049_37272" x="8.34961" y="87.3913" width="9.14941" height="9.14978" filterUnits="userSpaceOnUse" color-interpolation-filters="sRGB">
<feFlood flood-opacity="0" result="BackgroundImageFix"/>
<feBlend mode="normal" in="SourceGraphic" in2="BackgroundImageFix" result="shape"/>
<feColorMatrix in="SourceAlpha" type="matrix" values="0 0 0 0 0 0 0 0 0 0 0 0 0 0 0 0 0 0 127 0" result="hardAlpha"/>
<feOffset dx="3" dy="3"/>
<feGaussianBlur stdDeviation="1"/>
<feComposite in2="hardAlpha" operator="arithmetic" k2="-1" k3="1"/>
<feColorMatrix type="matrix" values="0 0 0 0 1 0 0 0 0 0.679167 0 0 0 0 0.761432 0 0 0 1 0"/>
<feBlend mode="multiply" in2="shape" result="effect1_innerShadow_2049_37272"/>
</filter>
<filter id="filter7_i_2049_37272" x="182.987" y="10.3146" width="8.43506" height="8.43478" filterUnits="userSpaceOnUse" color-interpolation-filters="sRGB">
<feFlood flood-opacity="0" result="BackgroundImageFix"/>
<feBlend mode="normal" in="SourceGraphic" in2="BackgroundImageFix" result="shape"/>
<feColorMatrix in="SourceAlpha" type="matrix" values="0 0 0 0 0 0 0 0 0 0 0 0 0 0 0 0 0 0 127 0" result="hardAlpha"/>
<feOffset dx="3" dy="3"/>
<feGaussianBlur stdDeviation="1"/>
<feComposite in2="hardAlpha" operator="arithmetic" k2="-1" k3="1"/>
<feColorMatrix type="matrix" values="0 0 0 0 1 0 0 0 0 0.679167 0 0 0 0 0.761432 0 0 0 1 0"/>
<feBlend mode="multiply" in2="shape" result="effect1_innerShadow_2049_37272"/>
</filter>
<linearGradient id="paint0_linear_2049_37272" x1="110.715" y1="113.017" x2="136.391" y2="112.201" gradientUnits="userSpaceOnUse">
<stop stop-color="white" stop-opacity="0"/>
<stop offset="0.454048" stop-color="white"/>
<stop offset="1" stop-color="white" stop-opacity="0"/>
</linearGradient>
</defs>
</svg>
