<svg width="185" height="162" viewBox="0 0 185 162" fill="none" xmlns="http://www.w3.org/2000/svg">
<g opacity="0.3" filter="url(#filter0_i_2049_37274)">
<path fill-rule="evenodd" clip-rule="evenodd" d="M90.2354 3.13968C105.347 3.89772 119.679 9.08991 131.987 17.885C144.372 26.7346 153.599 38.8184 159.686 52.7655C166.323 67.9753 172.434 84.5841 168.081 100.597C163.636 116.953 150.825 129.929 136.323 138.716C122.6 147.032 106.257 148.705 90.2354 147.767C75.0028 146.876 60.5051 142.148 47.909 133.542C35.0098 124.728 23.8052 113.296 18.3635 98.6572C12.7708 83.6118 12.6378 66.9953 17.4843 51.6936C22.3566 36.3102 31.8966 22.4987 45.3232 13.5378C58.4235 4.79474 74.5025 2.35049 90.2354 3.13968Z" fill="#F4ACBA"/>
</g>
<g opacity="0.9">
<g filter="url(#filter1_i_2049_37274)">
<path d="M134.02 123.177C134.227 123.49 134.593 123.664 134.965 123.609C135.46 123.537 135.948 123.445 136.456 123.336C136.942 123.231 137.394 123.09 137.847 122.95C138.236 122.83 138.52 122.493 138.565 122.089L139.058 117.642C139.093 117.321 139.283 117.039 139.559 116.87C140.038 116.575 140.49 116.25 140.915 115.896C141.165 115.687 141.494 115.596 141.812 115.666L146.23 116.637C146.599 116.718 146.984 116.586 147.21 116.283C147.815 115.472 148.335 114.606 148.795 113.714C148.971 113.371 148.923 112.958 148.682 112.657L145.846 109.121C145.64 108.865 145.577 108.525 145.653 108.205C145.781 107.661 145.858 107.115 145.902 106.568C145.928 106.245 146.096 105.948 146.368 105.772L150.163 103.327C150.482 103.121 150.659 102.752 150.604 102.376C150.532 101.883 150.441 101.397 150.331 100.892C150.227 100.407 150.086 99.954 149.946 99.5008C149.826 99.1125 149.489 98.8279 149.085 98.7832L144.638 98.2902C144.317 98.2546 144.035 98.0646 143.866 97.7896C143.57 97.3085 143.244 96.8549 142.888 96.4286C142.681 96.1815 142.589 95.8559 142.655 95.5409L143.607 91.0001C143.684 90.6339 143.552 90.2532 143.252 90.0292C142.439 89.422 141.572 88.9008 140.677 88.4401C140.335 88.2636 139.921 88.3122 139.621 88.5534L136.069 91.4017C135.822 91.6003 135.495 91.6671 135.185 91.5977C134.647 91.4769 134.086 91.3863 133.53 91.3359C133.208 91.3067 132.912 91.1396 132.736 90.8679L130.255 87.0322C130.049 86.7136 129.681 86.5368 129.305 86.5919C128.812 86.6643 128.326 86.7556 127.82 86.8648C127.335 86.9696 126.882 87.1103 126.429 87.2502C126.041 87.3701 125.756 87.7074 125.711 88.1113L125.219 92.5583C125.183 92.8794 124.993 93.1611 124.718 93.3305C124.236 93.627 123.782 93.9535 123.355 94.3101C123.109 94.5156 122.785 94.6077 122.471 94.5429L118.036 93.6285C117.671 93.5531 117.292 93.6858 117.069 93.9846C116.461 94.7978 115.939 95.6658 115.478 96.5609C115.302 96.9036 115.35 97.317 115.591 97.6176L118.44 101.169C118.638 101.417 118.705 101.743 118.636 102.053C118.511 102.606 118.415 103.184 118.349 103.769C118.314 104.077 118.148 104.356 117.887 104.524L114.072 106.983C113.752 107.189 113.575 107.558 113.63 107.934C113.702 108.427 113.794 108.913 113.903 109.418C114.008 109.904 114.148 110.356 114.288 110.809C114.408 111.198 114.745 111.482 115.149 111.527L119.596 112.02C119.917 112.055 120.199 112.245 120.369 112.521C120.664 113 120.988 113.452 121.343 113.877C121.551 114.127 121.643 114.456 121.573 114.774L120.602 119.192C120.521 119.561 120.653 119.946 120.956 120.172C121.767 120.777 122.632 121.297 123.525 121.757C123.867 121.933 124.281 121.885 124.581 121.644L128.133 118.795C128.38 118.597 128.707 118.53 129.017 118.6C129.572 118.725 130.152 118.821 130.739 118.887C131.044 118.922 131.32 119.084 131.489 119.34L134.02 123.177ZM126.349 106.441C126.16 105.688 126.158 104.907 126.268 104.094C126.415 103.319 126.671 102.586 127.072 101.935C127.913 100.596 129.222 99.6129 130.762 99.2726C132.303 98.9323 133.929 99.1538 135.268 99.9949C136.607 100.836 137.59 102.145 137.93 103.685C138.271 105.226 138.049 106.853 137.208 108.191C136.367 109.53 135.058 110.513 133.518 110.854C131.977 111.194 130.35 110.972 129.012 110.131C127.673 109.29 126.69 107.981 126.349 106.441Z" fill="#F197A8"/>
</g>
</g>
<path d="M70.168 113.998C69.8814 113.998 69.5947 113.998 69.2126 113.902L68.9259 113.806C67.8749 113.614 66.7284 113.422 65.5818 113.038C64.2442 112.654 63.0977 112.27 62.0467 111.887C60.3268 111.215 59.0848 109.679 58.9892 107.856L58.1293 97.8757C57.0783 97.2039 56.1229 96.4362 55.1674 95.6685L45.3262 97.5878C45.0396 97.6838 44.753 97.6838 44.4663 97.6838C42.9376 97.6838 41.5044 96.916 40.549 95.6685C39.0202 93.4613 37.6826 91.2541 36.7271 89.0469C35.9628 87.4155 36.2494 85.4002 37.396 84.0567L43.702 76.3795C43.4153 75.2279 43.3198 73.9804 43.2242 72.7328L35.1029 67.1669C33.4786 66.1112 32.7142 64.1919 33.0964 62.2726L33.192 61.9847C33.3831 60.9291 33.5742 59.8735 33.9563 58.626C34.3385 57.2825 34.7207 56.1309 35.1029 55.0753C35.6762 53.3479 37.3004 52.1003 39.1158 52.0044L49.148 51.1407C49.8169 50.181 50.4857 49.2214 51.3456 48.2617L49.4347 38.3773C49.0525 36.554 49.8169 34.6347 51.3456 33.5791C53.5431 32.0436 55.7407 30.7001 57.9382 29.7405C58.5115 29.4526 59.1803 29.2606 59.9447 29.2606C61.0912 29.2606 62.1422 29.6445 63.0021 30.4122L70.8368 36.9379C71.9834 36.65 73.2255 36.554 74.4676 36.458L80.0092 28.301C80.8691 26.7656 82.3978 25.9978 83.9266 25.9978C84.2132 25.9978 84.4998 25.9978 84.882 26.0938L85.1686 26.1898C86.2196 26.3817 87.3662 26.5736 88.5127 26.9575C89.8504 27.3413 90.9969 27.7252 92.0479 28.1091C93.7677 28.6849 95.0098 30.3163 95.1054 32.1396L95.9653 42.024C97.0163 42.6958 97.9717 43.4635 98.9272 44.2312L108.768 42.3119C109.055 42.2159 109.342 42.2159 109.628 42.2159C111.157 42.2159 112.59 42.9837 113.546 44.2312C115.074 46.4384 116.412 48.6456 117.367 50.8528C118.132 52.4842 117.845 54.4995 116.699 55.9389L110.297 63.5202C110.584 64.6718 110.679 65.9193 110.775 67.1669L118.896 72.7328C120.52 73.7885 121.285 75.7078 120.903 77.6271L120.807 77.915C120.616 78.9706 120.425 80.0262 120.043 81.1778C119.661 82.5213 119.278 83.6729 118.896 84.8244C118.323 86.5518 116.699 87.7034 114.883 87.8953L104.851 88.855C104.087 89.9106 103.418 90.8702 102.558 91.8299L104.469 101.714C104.851 103.538 104.087 105.457 102.558 106.513C100.36 108.048 98.1628 109.392 95.9653 110.351C95.392 110.639 94.7232 110.831 93.9588 110.831C92.8123 110.831 91.7613 110.447 90.9014 109.679L83.3533 103.25C82.2067 103.538 80.9646 103.634 79.7226 103.73L74.1809 111.887C73.321 113.23 71.7923 113.998 70.168 113.998ZM70.6457 78.1069C71.8878 79.0665 73.1299 79.6423 74.2765 79.9302C75.1364 80.2181 75.9963 80.3141 76.8562 80.3141C78.6716 80.3141 80.4869 79.8343 82.1112 78.8746C84.4043 77.5311 86.1241 75.2279 86.8885 72.4449C87.5573 69.8539 87.1751 67.0709 85.7419 64.5758C84.4043 62.2726 82.1112 60.5453 79.3404 59.7776C78.4805 59.5856 77.6206 59.3937 76.7607 59.3937C74.9453 59.3937 73.1299 59.8735 71.5057 60.8332C69.2126 62.1767 67.4928 64.4798 66.7284 67.2628C66.0596 69.8539 66.4418 72.6369 67.8749 75.132C68.6393 76.1876 69.4992 77.1472 70.6457 78.1069Z" fill="#F197A8"/>
<g filter="url(#filter2_i_2049_37274)">
<path d="M115.389 84.2945C116.137 84.2227 116.786 83.7384 117.041 83.0307C117.435 81.937 117.778 80.8391 118.105 79.679C118.42 78.5631 118.62 77.4771 118.827 76.389C118.979 75.5907 118.651 74.7719 117.979 74.3144L109.519 68.5516C108.985 68.1879 108.665 67.5883 108.626 66.9434C108.546 65.6119 108.368 64.3059 108.092 63.0252C107.955 62.3893 108.103 61.7208 108.524 61.2249L115.212 53.3478C115.701 52.772 115.828 51.9676 115.508 51.2835C114.511 49.1549 113.3 47.1477 111.964 45.2384C111.522 44.6067 110.747 44.3051 109.989 44.4495L99.8127 46.3898C99.1678 46.5127 98.5079 46.3062 98.0165 45.8708C97.0241 44.9915 95.9658 44.2241 94.8653 43.5285C94.3175 43.1822 93.9506 42.607 93.8956 41.9613L93.0209 31.6847C92.9565 30.9277 92.47 30.2687 91.7551 30.0116C90.6659 29.62 89.5724 29.2781 88.4171 28.9522C87.3013 28.6374 86.2153 28.4379 85.1272 28.2303C84.3288 28.078 83.5101 28.4066 83.0526 29.0783L77.2898 37.5385C76.9261 38.0725 76.3264 38.3928 75.6815 38.4315C74.3459 38.5117 73.0359 38.6905 71.7514 38.968C71.1222 39.1039 70.4607 38.9605 69.966 38.5487L61.8274 31.7733C61.2522 31.2945 60.4557 31.1724 59.7777 31.4894C57.6446 32.487 55.6334 33.7006 53.7205 35.0386C53.0889 35.4804 52.7872 36.2561 52.9316 37.0133L54.8792 47.2284C54.9981 47.852 54.8107 48.492 54.3959 48.9725C53.5436 49.9602 52.7311 51.033 52.0146 52.1422C51.6635 52.6857 51.0901 53.0527 50.4455 53.1085L40.0512 54.0095C39.2954 54.075 38.6379 54.5611 38.3811 55.275C37.9892 56.3648 37.6471 57.459 37.321 58.6149C37.0063 59.7308 36.8067 60.8168 36.5991 61.9049C36.4468 62.7033 36.7754 63.522 37.4471 63.9795L45.9073 69.7423C46.4413 70.106 46.7616 70.7056 46.8003 71.3506C46.8806 72.6875 47.0597 73.9989 47.3377 75.2848C47.4732 75.9116 47.3314 76.5708 46.9227 77.065L40.3335 85.0336C39.8581 85.6086 39.7377 86.4024 40.0537 87.0782C41.0516 89.2129 42.2659 91.2255 43.6048 93.1396C44.0466 93.7712 44.8223 94.0728 45.5795 93.9285L55.7946 91.9809C56.4181 91.862 57.0584 92.0492 57.5385 92.4644C58.5474 93.3369 59.6475 94.1765 60.7955 94.9579C61.3079 95.3067 61.6458 95.8624 61.6984 96.48L62.5774 106.807C62.6418 107.564 63.1282 108.223 63.8432 108.48C64.9323 108.871 66.0258 109.213 67.1811 109.539C68.2969 109.854 69.383 110.053 70.4711 110.261C71.2694 110.413 72.0881 110.085 72.5457 109.413L78.3085 100.953C78.6722 100.419 79.2718 100.098 79.9167 100.06C81.2482 99.9799 82.5542 99.8019 83.8349 99.5259C84.4708 99.3889 85.1393 99.5371 85.6352 99.9581L93.5123 106.646C94.0881 107.135 94.8924 107.262 95.5765 106.942C97.7052 105.945 99.7124 104.733 101.622 103.398C102.253 102.956 102.555 102.18 102.411 101.423L100.463 91.2081C100.344 90.5846 100.531 89.9444 100.947 89.4643C101.822 88.4521 102.664 87.3483 103.447 86.1964C103.792 85.69 104.338 85.3537 104.948 85.2952L115.389 84.2945ZM74.3106 81.9381C72.6319 81.5259 71.092 80.7149 69.6068 79.648C68.2349 78.5518 67.0604 77.2836 66.1966 75.8141C64.4396 72.7618 63.8708 69.1603 64.8086 65.7737C65.7465 62.3871 67.8803 59.4167 70.9326 57.6597C73.9849 55.9028 77.5864 55.3339 80.9731 56.2718C84.3597 57.2096 87.3301 59.3434 89.087 62.3958C90.844 65.4481 91.4128 69.0496 90.475 72.4362C89.5371 75.8228 87.4033 78.7932 84.351 80.5502C81.2987 82.3071 77.6972 82.8759 74.3106 81.9381Z" fill="#E7758B"/>
</g>
<g style="mix-blend-mode:multiply" filter="url(#filter3_i_2049_37274)">
<path d="M88.883 93.8859C88.3877 93.4689 87.7211 93.3176 87.0942 93.4797L85.9098 93.7861C84.2722 94.2097 82.6872 94.3867 80.9647 94.4828L79.6494 94.5562C79.0306 94.5907 78.4628 94.9102 78.112 95.4211L72.7622 103.214C72.4028 103.737 71.7186 103.93 71.0882 103.853C70.9639 103.838 70.8718 103.82 70.7534 103.779C70.1274 103.563 69.6203 103.014 69.5632 102.354L68.7443 92.8962C68.6928 92.3016 68.3784 91.761 67.8869 91.4221L66.82 90.6866C65.4176 89.768 64.1243 88.8213 62.912 87.737L61.9671 86.8684C61.5036 86.4424 60.8666 86.2594 60.2477 86.3745L51.2649 88.0456C50.5094 88.1862 49.7482 87.8376 49.3706 87.1683C48.9903 86.4944 49.0629 85.6515 49.5612 85.0595L55.4606 78.0513C55.8776 77.5559 56.029 76.8893 55.8668 76.2624L55.5605 75.0781C55.1369 73.4404 54.9598 71.8554 54.892 70.2421L54.8186 68.9268C54.7841 68.308 54.4646 67.7402 53.9537 67.3894L46.1608 62.0396C45.6373 61.6802 45.4451 60.996 45.5216 60.3656C45.5366 60.2413 45.5549 60.1492 45.5957 60.0308C45.8113 59.4048 46.3609 58.8977 47.0207 58.8406L56.4333 58.0256C57.0537 57.9719 57.6137 57.6322 57.9481 57.1068L58.6599 55.9882C59.5785 54.5858 60.5253 53.2925 61.6095 52.0802L62.4776 51.1359C62.9039 50.6721 63.0868 50.0345 62.9712 49.4153L61.2737 40.3243C61.1325 39.5686 61.4809 38.8071 62.1504 38.4294C62.8241 38.0492 63.6667 38.1218 64.2585 38.6199L71.267 44.5197C71.7624 44.9367 72.429 45.088 73.0559 44.9259L74.2402 44.6195C75.8779 44.1959 77.4629 44.0189 79.0762 43.951L80.4007 43.8771C81.0143 43.8429 81.5781 43.5285 81.9297 43.0244L87.3011 35.3235C87.6645 34.8025 88.3492 34.613 88.9798 34.6896C89.1049 34.7049 89.1975 34.7232 89.3166 34.7642C89.9427 34.9798 90.4488 35.5292 90.506 36.1889L91.321 45.6015C91.3747 46.222 91.7143 46.782 92.2397 47.1163L93.3583 47.8282C94.7325 48.6375 96.054 49.6935 97.2664 50.7777L98.2106 51.6458C98.6744 52.0721 99.312 52.2551 99.9313 52.1394L109.022 50.4419C109.778 50.3008 110.539 50.6492 110.917 51.3187C111.297 51.9923 111.225 52.8349 110.727 53.4267L104.827 60.4353C104.41 60.9306 104.259 61.5972 104.421 62.2241L104.727 63.4085C105.151 65.0462 105.328 66.6312 105.424 68.3536L105.497 69.6689C105.532 70.2877 105.851 70.8556 106.362 71.2063L114.155 76.5561C114.678 76.9155 114.871 77.5998 114.794 78.2301C114.779 78.3544 114.761 78.4465 114.72 78.5649C114.504 79.191 113.955 79.698 113.295 79.7551L103.882 80.5701C103.262 80.6238 102.702 80.9635 102.368 81.4889L101.656 82.6075C100.737 84.0099 99.7905 85.3032 98.7062 86.5155L97.8571 87.2554C97.3231 87.7208 97.075 88.434 97.205 89.1304L98.8764 98.0813C99.0175 98.837 98.6692 99.5984 97.9997 99.9762C97.326 100.356 96.4834 100.284 95.8916 99.7857L88.883 93.8859ZM75.6995 52.5125C74.171 52.9079 72.699 53.5216 71.2834 54.3537C67.3361 56.6561 64.4674 60.4267 63.3005 64.922C62.1337 69.4173 62.7457 74.0349 65.048 77.9822C66.1305 79.9154 67.7307 81.5982 69.4927 83.0062C71.3639 84.3859 73.3687 85.3816 75.5072 85.9933C78.3855 86.7631 81.3936 86.6839 84.2322 85.9496C85.7607 85.5542 87.2328 84.9405 88.6483 84.1084C92.5957 81.806 95.4643 78.0354 96.6312 73.5401C97.7981 69.0448 97.1861 64.4272 94.8837 60.4799C92.5813 56.5325 88.8106 53.6639 84.3154 52.497C81.5745 51.8082 78.5382 51.7782 75.6995 52.5125Z" fill="#E7758B" fill-opacity="0.42"/>
</g>
<path d="M75.2546 53.3318C90.9038 49.2838 95.5366 60.7395 97.0706 66.6697C97.8273 71.7464 96.5238 82.6286 85.2564 85.5432C71.1721 89.1864 63.7929 80.0229 62.6424 75.5752" stroke="url(#paint0_linear_2049_37274)" stroke-opacity="0.38" stroke-linecap="round"/>
<path d="M74.1206 56.9175C86.0399 53.8343 89.5686 62.5596 90.737 67.0764C91.3133 70.9432 90.3205 79.2317 81.7385 81.4516C71.0111 84.2265 65.3907 77.2471 64.5144 73.8595" stroke="url(#paint1_linear_2049_37274)" stroke-opacity="0.38" stroke-linecap="round"/>
<path d="M98.6597 51.6914L108.686 50.048C110.459 49.7574 111.686 51.7703 110.616 53.2133L104.943 60.8593C104.648 61.2572 104.511 61.7505 104.559 62.2436L105.24 69.2799C105.297 69.8632 105.606 70.3923 106.087 70.7276L114.265 76.4319C115.833 77.5259 115.119 79.9861 113.209 80.0704L104.641 80.4484C104.077 80.4733 103.55 80.7354 103.19 81.17L97.8794 87.5758C97.5114 88.0197 97.3529 88.6009 97.4445 89.1702L98.8121 97.6637C99.1019 99.4632 97.0302 100.681 95.5991 99.552L89.0345 94.3746C88.6253 94.0519 88.1062 93.9016 87.5879 93.9559L80.0461 94.7448C79.5252 94.7993 79.0465 95.0559 78.7128 95.4595L72.3775 103.121C71.1834 104.565 68.8373 103.721 68.8362 101.848L68.8311 92.8153" stroke="url(#paint2_linear_2049_37274)" stroke-opacity="0.38" stroke-linecap="round"/>
<path d="M71.5 110L78.2818 101.41C78.744 100.825 79.4076 100.432 80.1433 100.31L83.6338 99.7281C84.5006 99.5837 85.3872 99.8265 86.0594 100.393L92.9093 106.161C93.8661 106.967 95.2223 107.094 96.3125 106.481L100.69 104.019C101.779 103.406 102.374 102.183 102.184 100.948L100.715 91.3951C100.579 90.5117 100.844 89.6138 101.437 88.9458L103.703 86.3973C104.215 85.8216 104.928 85.4647 105.696 85.4008L114.673 84.6527C115.795 84.5592 116.77 83.8459 117.198 82.8053L119.102 78.1815C119.629 76.9016 119.212 75.4272 118.092 74.6131L109.972 68.7074C109.348 68.2536 108.923 67.5769 108.785 66.8178L108.244 63.8445C108.089 62.9906 108.311 62.1114 108.853 61.4337L114.671 54.1611C115.467 53.1663 115.548 51.7773 114.873 50.697L112.021 46.1345C111.399 45.1389 110.253 44.5978 109.089 44.7497L99.5 46.0004" stroke="url(#paint3_linear_2049_37274)" stroke-opacity="0.38"/>
<g filter="url(#filter4_i_2049_37274)">
<circle cx="53.1999" cy="157.147" r="3.21714" transform="rotate(145.804 53.1999 157.147)" fill="#F4ACBA"/>
</g>
<g filter="url(#filter5_i_2049_37274)">
<circle cx="177.515" cy="44.5154" r="6.07681" transform="rotate(-175.7 177.515 44.5154)" fill="#F4ACBA"/>
</g>
<g filter="url(#filter6_i_2049_37274)">
<circle cx="3.8324" cy="98.8325" r="3.57459" transform="rotate(-175.7 3.8324 98.8325)" fill="#F4ACBA"/>
</g>
<g filter="url(#filter7_i_2049_37274)">
<circle cx="175.849" cy="3.4493" r="3.21714" transform="rotate(-175.7 175.849 3.4493)" fill="#F4ACBA"/>
</g>
<defs>
<filter id="filter0_i_2049_37274" x="14" y="3.00035" width="157.545" height="149" filterUnits="userSpaceOnUse" color-interpolation-filters="sRGB">
<feFlood flood-opacity="0" result="BackgroundImageFix"/>
<feBlend mode="normal" in="SourceGraphic" in2="BackgroundImageFix" result="shape"/>
<feColorMatrix in="SourceAlpha" type="matrix" values="0 0 0 0 0 0 0 0 0 0 0 0 0 0 0 0 0 0 127 0" result="hardAlpha"/>
<feOffset dx="2" dy="8"/>
<feGaussianBlur stdDeviation="2"/>
<feComposite in2="hardAlpha" operator="arithmetic" k2="-1" k3="1"/>
<feColorMatrix type="matrix" values="0 0 0 0 0.991667 0 0 0 0 0.545417 0 0 0 0 0.65984 0 0 0 1 0"/>
<feBlend mode="multiply" in2="shape" result="effect1_innerShadow_2049_37274"/>
</filter>
<filter id="filter1_i_2049_37274" x="113.62" y="86.5819" width="40.9941" height="39.0374" filterUnits="userSpaceOnUse" color-interpolation-filters="sRGB">
<feFlood flood-opacity="0" result="BackgroundImageFix"/>
<feBlend mode="normal" in="SourceGraphic" in2="BackgroundImageFix" result="shape"/>
<feColorMatrix in="SourceAlpha" type="matrix" values="0 0 0 0 0 0 0 0 0 0 0 0 0 0 0 0 0 0 127 0" result="hardAlpha"/>
<feOffset dx="4" dy="2"/>
<feGaussianBlur stdDeviation="2"/>
<feComposite in2="hardAlpha" operator="arithmetic" k2="-1" k3="1"/>
<feColorMatrix type="matrix" values="0 0 0 0 0.945098 0 0 0 0 0.592157 0 0 0 0 0.658824 0 0 0 0.55 0"/>
<feBlend mode="multiply" in2="shape" result="effect1_innerShadow_2049_37274"/>
</filter>
<filter id="filter2_i_2049_37274" x="36.5625" y="28.1935" width="86.3013" height="84.1042" filterUnits="userSpaceOnUse" color-interpolation-filters="sRGB">
<feFlood flood-opacity="0" result="BackgroundImageFix"/>
<feBlend mode="normal" in="SourceGraphic" in2="BackgroundImageFix" result="shape"/>
<feColorMatrix in="SourceAlpha" type="matrix" values="0 0 0 0 0 0 0 0 0 0 0 0 0 0 0 0 0 0 127 0" result="hardAlpha"/>
<feOffset dx="4" dy="2"/>
<feGaussianBlur stdDeviation="2"/>
<feComposite in2="hardAlpha" operator="arithmetic" k2="-1" k3="1"/>
<feColorMatrix type="matrix" values="0 0 0 0 0.945098 0 0 0 0 0.592157 0 0 0 0 0.658824 0 0 0 0.55 0"/>
<feBlend mode="multiply" in2="shape" result="effect1_innerShadow_2049_37274"/>
</filter>
<filter id="filter3_i_2049_37274" x="45.5054" y="34.6733" width="73.3052" height="71.1961" filterUnits="userSpaceOnUse" color-interpolation-filters="sRGB">
<feFlood flood-opacity="0" result="BackgroundImageFix"/>
<feBlend mode="normal" in="SourceGraphic" in2="BackgroundImageFix" result="shape"/>
<feColorMatrix in="SourceAlpha" type="matrix" values="0 0 0 0 0 0 0 0 0 0 0 0 0 0 0 0 0 0 127 0" result="hardAlpha"/>
<feOffset dx="4" dy="2"/>
<feGaussianBlur stdDeviation="2"/>
<feComposite in2="hardAlpha" operator="arithmetic" k2="-1" k3="1"/>
<feColorMatrix type="matrix" values="0 0 0 0 0.945098 0 0 0 0 0.592157 0 0 0 0 0.658824 0 0 0 0.55 0"/>
<feBlend mode="multiply" in2="shape" result="effect1_innerShadow_2049_37274"/>
</filter>
<filter id="filter4_i_2049_37274" x="49.9824" y="153.93" width="8.43506" height="8.43491" filterUnits="userSpaceOnUse" color-interpolation-filters="sRGB">
<feFlood flood-opacity="0" result="BackgroundImageFix"/>
<feBlend mode="normal" in="SourceGraphic" in2="BackgroundImageFix" result="shape"/>
<feColorMatrix in="SourceAlpha" type="matrix" values="0 0 0 0 0 0 0 0 0 0 0 0 0 0 0 0 0 0 127 0" result="hardAlpha"/>
<feOffset dx="3" dy="3"/>
<feGaussianBlur stdDeviation="1"/>
<feComposite in2="hardAlpha" operator="arithmetic" k2="-1" k3="1"/>
<feColorMatrix type="matrix" values="0 0 0 0 1 0 0 0 0 0.679167 0 0 0 0 0.761432 0 0 0 1 0"/>
<feBlend mode="multiply" in2="shape" result="effect1_innerShadow_2049_37274"/>
</filter>
<filter id="filter5_i_2049_37274" x="171.438" y="38.4383" width="14.1543" height="14.1542" filterUnits="userSpaceOnUse" color-interpolation-filters="sRGB">
<feFlood flood-opacity="0" result="BackgroundImageFix"/>
<feBlend mode="normal" in="SourceGraphic" in2="BackgroundImageFix" result="shape"/>
<feColorMatrix in="SourceAlpha" type="matrix" values="0 0 0 0 0 0 0 0 0 0 0 0 0 0 0 0 0 0 127 0" result="hardAlpha"/>
<feOffset dx="3" dy="3"/>
<feGaussianBlur stdDeviation="1"/>
<feComposite in2="hardAlpha" operator="arithmetic" k2="-1" k3="1"/>
<feColorMatrix type="matrix" values="0 0 0 0 1 0 0 0 0 0.679167 0 0 0 0 0.761432 0 0 0 1 0"/>
<feBlend mode="multiply" in2="shape" result="effect1_innerShadow_2049_37274"/>
</filter>
<filter id="filter6_i_2049_37274" x="0.257812" y="95.2577" width="9.14941" height="9.14954" filterUnits="userSpaceOnUse" color-interpolation-filters="sRGB">
<feFlood flood-opacity="0" result="BackgroundImageFix"/>
<feBlend mode="normal" in="SourceGraphic" in2="BackgroundImageFix" result="shape"/>
<feColorMatrix in="SourceAlpha" type="matrix" values="0 0 0 0 0 0 0 0 0 0 0 0 0 0 0 0 0 0 127 0" result="hardAlpha"/>
<feOffset dx="3" dy="3"/>
<feGaussianBlur stdDeviation="1"/>
<feComposite in2="hardAlpha" operator="arithmetic" k2="-1" k3="1"/>
<feColorMatrix type="matrix" values="0 0 0 0 1 0 0 0 0 0.679167 0 0 0 0 0.761432 0 0 0 1 0"/>
<feBlend mode="multiply" in2="shape" result="effect1_innerShadow_2049_37274"/>
</filter>
<filter id="filter7_i_2049_37274" x="172.631" y="0.23201" width="8.43457" height="8.43459" filterUnits="userSpaceOnUse" color-interpolation-filters="sRGB">
<feFlood flood-opacity="0" result="BackgroundImageFix"/>
<feBlend mode="normal" in="SourceGraphic" in2="BackgroundImageFix" result="shape"/>
<feColorMatrix in="SourceAlpha" type="matrix" values="0 0 0 0 0 0 0 0 0 0 0 0 0 0 0 0 0 0 127 0" result="hardAlpha"/>
<feOffset dx="3" dy="3"/>
<feGaussianBlur stdDeviation="1"/>
<feComposite in2="hardAlpha" operator="arithmetic" k2="-1" k3="1"/>
<feColorMatrix type="matrix" values="0 0 0 0 1 0 0 0 0 0.679167 0 0 0 0 0.761432 0 0 0 1 0"/>
<feBlend mode="multiply" in2="shape" result="effect1_innerShadow_2049_37274"/>
</filter>
<linearGradient id="paint0_linear_2049_37274" x1="109.912" y1="77.5838" x2="84.9508" y2="68.7918" gradientUnits="userSpaceOnUse">
<stop offset="0.00520833" stop-color="white" stop-opacity="0"/>
<stop offset="0.454048" stop-color="white"/>
<stop offset="1" stop-color="white" stop-opacity="0"/>
</linearGradient>
<linearGradient id="paint1_linear_2049_37274" x1="100.517" y1="75.3893" x2="81.5058" y2="68.6928" gradientUnits="userSpaceOnUse">
<stop offset="0.00520833" stop-color="white" stop-opacity="0"/>
<stop offset="0.454048" stop-color="white"/>
<stop offset="1" stop-color="white" stop-opacity="0"/>
</linearGradient>
<linearGradient id="paint2_linear_2049_37274" x1="109" y1="116.5" x2="124.085" y2="67.1043" gradientUnits="userSpaceOnUse">
<stop stop-color="white" stop-opacity="0"/>
<stop offset="0.434644" stop-color="white"/>
<stop offset="1" stop-color="white" stop-opacity="0"/>
</linearGradient>
<linearGradient id="paint3_linear_2049_37274" x1="102.5" y1="46.0004" x2="50.9216" y2="87.8104" gradientUnits="userSpaceOnUse">
<stop offset="0.00520833" stop-color="white" stop-opacity="0"/>
<stop offset="0.454048" stop-color="white"/>
<stop offset="1" stop-color="white" stop-opacity="0"/>
</linearGradient>
</defs>
</svg>
