<svg width="20" height="19" viewBox="0 0 20 19" fill="none" xmlns="http://www.w3.org/2000/svg">
<path d="M10.7731 18.2961C10.5592 18.4835 10.2847 18.5866 9.99996 18.5866C9.71538 18.5866 9.44072 18.4835 9.22695 18.2964C8.41716 17.5882 7.63697 16.9233 6.94849 16.3367L6.9482 16.3365C4.9337 14.6196 3.194 13.137 1.98342 11.6762C0.630108 10.0433 -8.2016e-05 8.49503 -8.2016e-05 6.80358C-8.2016e-05 5.1602 0.563274 3.64409 1.58638 2.53431C2.62169 1.41141 4.04245 0.792969 5.58695 0.792969C6.74143 0.792969 7.79872 1.15796 8.72935 1.87772C9.19917 2.24103 9.62474 2.68568 9.99996 3.20433C10.375 2.68568 10.8007 2.24103 11.2704 1.87772C12.201 1.15796 13.2583 0.792969 14.4128 0.792969C15.9575 0.792969 17.3781 1.41141 18.4134 2.53431C19.4365 3.64409 20 5.1602 20 6.80358C20 8.49503 19.3697 10.0433 18.0163 11.6763C16.8057 13.1371 15.0657 14.6199 13.0508 16.337L13.0473 16.3401C12.36 16.9257 11.5811 17.5896 10.7731 18.2961Z" fill="#46C0C1"/>
</svg>
