<svg width="20" height="19" viewBox="0 0 20 19" fill="none" xmlns="http://www.w3.org/2000/svg">
<path d="M10.2794 17.7315L10.279 17.7319C10.202 17.7993 10.1031 17.8366 9.99996 17.8366C9.89679 17.8366 9.7977 17.7992 9.72085 17.732L9.72067 17.7318C8.90675 17.0201 8.12311 16.3521 7.43488 15.7658L7.43472 15.7657L7.43468 15.7656L10.2794 17.7315ZM10.2794 17.7315C11.0904 17.0224 11.8718 16.3564 12.558 15.7716L12.5587 15.7711L12.5587 15.771M10.2794 17.7315L12.5587 15.771M12.5587 15.771L12.5644 15.7662M12.5587 15.771L12.5644 15.7662M12.5644 15.7662C14.5962 14.0347 16.2788 12.5975 17.4389 11.1978M12.5644 15.7662L17.4389 11.1978M10 3.95433C10.2407 3.9543 10.4667 3.83881 10.6077 3.64382C10.944 3.1787 11.3206 2.7871 11.7292 2.47099L10 3.95433ZM10 3.95433C9.75939 3.95435 9.53335 3.8389 9.3923 3.64393M10 3.95433L9.3923 3.64393M9.3923 3.64393C9.05568 3.17863 8.67922 2.78704 8.27056 2.47102L8.27052 2.47099M9.3923 3.64393L8.27052 2.47099M8.27052 2.47099C7.46853 1.85073 6.57195 1.54297 5.58695 1.54297M8.27052 2.47099L5.58695 1.54297M2.56089 11.1976L2.56087 11.1976C1.29004 9.66426 0.749918 8.2796 0.749918 6.80358C0.749918 5.33039 1.25421 4.00114 2.13778 3.0427L2.56089 11.1976ZM2.56089 11.1976C3.72088 12.5974 5.40309 14.0342 7.43443 15.7654L2.56089 11.1976ZM17.4389 11.1978C18.7098 9.66422 19.25 8.27955 19.25 6.80358M17.4389 11.1978L19.25 6.80358M19.25 6.80358C19.25 5.33044 18.7456 4.00117 17.862 3.0427L19.25 6.80358ZM5.58695 1.54297C4.24927 1.54297 3.02933 2.07574 2.13781 3.04267L5.58695 1.54297ZM17.862 3.04267C16.9704 2.07574 15.7506 1.54297 14.4128 1.54297C13.4278 1.54297 12.5313 1.85072 11.7293 2.47095L17.862 3.04267Z" fill="#46C0C1" stroke="#46C0C1" stroke-width="1.5" stroke-linejoin="round"/>
</svg>
