<svg width="175" height="57" viewBox="0 0 175 57" fill="none" xmlns="http://www.w3.org/2000/svg">
<path d="M49.5242 13.0458C56.0548 12.5669 62.7379 12.3927 69.4645 12.4798C69.7692 12.4798 70.074 12.4798 70.357 12.5016C71.2713 12.5233 72.1856 12.5451 73.0781 12.5669C73.5352 12.5886 74.0142 12.5886 74.4713 12.6104C75.5162 12.6539 76.5394 12.6975 77.5843 12.741C78.1938 12.7628 78.8251 12.8063 79.4346 12.8281C80.1312 12.8716 80.8278 12.8934 81.5244 12.9369C82.0033 12.9587 82.4605 12.9805 82.9176 13.024C105.535 14.5043 127.152 18.7928 141.694 24.7574C124.997 -12.1843 40.0547 -1.10398 10.1225 22.1452C9.42592 22.6894 8.79462 23.2118 8.16333 23.7778C8.03271 23.8867 7.9021 23.9955 7.77149 24.1261C7.14019 24.6921 6.55243 25.2364 5.98644 25.8241C5.44222 26.3683 4.94153 26.9343 4.46262 27.5003C4.35377 27.6309 4.22317 27.7833 4.11432 27.9139C3.65718 28.4799 3.20003 29.0459 2.80819 29.6337C1.04491 32.2242 0.174152 34.6405 0.0217702 36.8827C1.32834e-06 37.2092 0 37.514 0 37.8405C0.0653066 40.1698 0.870758 42.2596 2.22043 44.1317C3.5701 46.0039 5.48576 47.6365 7.77149 49.0515C8.68578 49.6175 9.66538 50.1617 10.6885 50.6624C11.7117 51.1631 12.7783 51.642 13.8885 52.0774C14.4328 52.2951 14.9988 52.5128 15.5647 52.7087C16.6967 53.1223 17.8722 53.4924 19.0478 53.8407C19.6355 54.0148 20.2451 54.1672 20.8328 54.3413C22.0301 54.6461 23.2492 54.9291 24.4682 55.1903C29.3444 56.2135 34.2207 56.7577 38.3785 56.8883C39.4234 56.9318 40.403 56.9318 41.3391 56.9101C42.2752 56.8883 43.1459 56.8448 43.9731 56.7794C33.7853 56.257 9.40415 47.5277 7.83679 34.2487C6.31297 21.3833 25.056 14.9179 49.5242 13.0458Z" fill="white"/>
<path d="M23.2919 23.6914V37.5364H23.4661L33.0226 23.6914H36.3315V44.0018H32.6525V30.1568H32.4784L22.9001 44.0018H19.6348V23.6914H23.2919Z" fill="white"/>
<path d="M51.6134 39.8203L56.1413 28.7617H60.4951V43.9999H57.0774V33.6162L52.876 43.9999H50.3726L46.3235 33.725V43.9999H42.8623V28.7617H47.2161L51.6134 39.8203Z" fill="white"/>
<path d="M66.8091 43.9999V28.7617H79.6745V43.9999H76.2132V31.7005H70.2486V43.9999H66.8091Z" fill="white"/>
<path d="M84.9852 43.9999L84.9634 41.0394H85.4858C86.0083 41.0394 86.4437 40.887 86.7484 40.5387C87.0532 40.2121 87.2926 39.6462 87.4668 38.8407C87.6192 38.0353 87.728 36.925 87.7933 35.5101L88.0546 28.7617H99.1567V43.9999H95.6954V31.7223H91.3199L91.0804 36.6203C90.9716 39.1672 90.5144 41.0176 89.7308 42.2149C88.9471 43.4122 87.728 43.9999 86.0954 43.9999H84.9852Z" fill="white"/>
<path d="M112.109 44.2835C110.629 44.2835 109.323 43.957 108.235 43.3039C107.146 42.6509 106.297 41.7366 105.709 40.5611C105.1 39.3855 104.817 38.0141 104.817 36.4467C104.817 34.8794 105.122 33.4862 105.709 32.3107C106.297 31.1351 107.146 30.2208 108.235 29.546C109.323 28.8929 110.607 28.5664 112.109 28.5664C113.59 28.5664 114.896 28.8929 115.984 29.546C117.073 30.1991 117.922 31.1134 118.51 32.3107C119.097 33.4862 119.402 34.8576 119.402 36.4467C119.402 38.0141 119.097 39.3855 118.51 40.5611C117.922 41.7366 117.073 42.6509 115.984 43.3039C114.896 43.957 113.612 44.2835 112.109 44.2835ZM112.131 41.41C112.937 41.41 113.612 41.1924 114.156 40.7352C114.7 40.2998 115.092 39.6903 115.353 38.9284C115.614 38.1665 115.745 37.3393 115.745 36.4032C115.745 35.4671 115.614 34.6182 115.353 33.878C115.092 33.1161 114.678 32.5283 114.156 32.0712C113.612 31.614 112.937 31.3964 112.131 31.3964C111.304 31.3964 110.629 31.614 110.085 32.0712C109.541 32.5283 109.127 33.1161 108.866 33.878C108.605 34.6399 108.452 35.4889 108.452 36.4032C108.452 37.3175 108.583 38.1665 108.866 38.9284C109.127 39.6903 109.541 40.2781 110.085 40.7352C110.629 41.1924 111.326 41.41 112.131 41.41Z" fill="white"/>
<path d="M125.127 43.9999V28.7617H131.527C133.334 28.7617 134.749 29.1318 135.794 29.8502C136.839 30.5685 137.361 31.5699 137.361 32.8543C137.361 33.7032 137.056 34.3999 136.469 34.9441C135.881 35.4665 135.075 35.8366 134.052 36.0325C135.249 36.1414 136.229 36.5332 136.969 37.2298C137.709 37.9264 138.101 38.7972 138.101 39.8638C138.101 41.1264 137.622 42.1278 136.643 42.8679C135.663 43.6081 134.292 43.9999 132.507 43.9999H125.127ZM128.501 35.0747H131.614C132.332 35.0747 132.92 34.9223 133.334 34.5958C133.747 34.291 133.965 33.8556 133.965 33.3114C133.965 32.789 133.747 32.3754 133.312 32.0706C132.877 31.7658 132.289 31.6352 131.549 31.6352H128.523V35.0747H128.501ZM128.501 41.17H132.528C133.181 41.17 133.704 41.0176 134.096 40.6911C134.466 40.3863 134.662 39.9509 134.662 39.4067C134.662 38.7754 134.466 38.2747 134.096 37.9264C133.726 37.5563 133.203 37.3822 132.528 37.3822H128.501V41.17Z" fill="white"/>
<path d="M147.223 39.1237L153.319 28.7617H157.019V43.9999H153.558V33.6162L147.463 43.9999H143.762V28.7617H147.223V39.1237Z" fill="white"/>
<path d="M161.677 31.7005V28.7617H175V31.7005H170.08V43.9999H166.597V31.7005H161.677Z" fill="white"/>
</svg>
