<svg width="153" height="50" viewBox="0 0 153 50" fill="none" xmlns="http://www.w3.org/2000/svg">
<path d="M43.2983 10.733C49.0079 10.3142 54.8508 10.162 60.7318 10.2381C60.9983 10.2381 61.2647 10.2381 61.5121 10.2571C62.3115 10.2762 63.1108 10.2952 63.8911 10.3142C64.2908 10.3333 64.7095 10.3333 65.1092 10.3523C66.0228 10.3904 66.9173 10.4284 67.8308 10.4665C68.3637 10.4855 68.9156 10.5236 69.4485 10.5426C70.0576 10.5807 70.6666 10.5997 71.2756 10.6378C71.6943 10.6568 72.094 10.6759 72.4937 10.7139C92.2682 12.0081 111.167 15.7575 123.881 20.9723C109.283 -11.3254 35.0193 -1.63799 8.84998 18.6884C8.24095 19.1642 7.68901 19.621 7.13708 20.1158C7.02289 20.211 6.9087 20.3062 6.7945 20.4204C6.24257 20.9152 5.7287 21.391 5.23386 21.9049C4.75805 22.3807 4.32031 22.8755 3.9016 23.3703C3.80644 23.4845 3.69225 23.6178 3.59709 23.732C3.19742 24.2268 2.79774 24.7216 2.45516 25.2355C0.913551 27.5003 0.152259 29.6129 0.0190334 31.5732C1.16043e-06 31.8587 0 32.1252 0 32.4106C0.0570966 34.4471 0.761291 36.2742 1.94129 37.911C3.12129 39.5477 4.79612 40.9751 6.7945 42.2122C7.59385 42.7071 8.4503 43.1829 9.34482 43.6206C10.2393 44.0584 11.1719 44.4771 12.1426 44.8577C12.6184 45.048 13.1132 45.2384 13.608 45.4097C14.5977 45.7713 15.6254 46.0948 16.6532 46.3993C17.1671 46.5516 17.7 46.6848 18.2138 46.8371C19.2606 47.1035 20.3264 47.3509 21.3922 47.5793C25.6554 48.4738 29.9186 48.9496 33.5538 49.0638C34.4673 49.1019 35.3238 49.1019 36.1422 49.0829C36.9606 49.0638 37.7218 49.0258 38.4451 48.9687C29.538 48.5119 8.22192 40.88 6.8516 29.2703C5.51934 18.0223 21.9061 12.3697 43.2983 10.733Z" fill="#46C0C1"/>
<path d="M20.3649 20.0396V32.1441H20.5172L28.8723 20.0396H31.7652V37.7967H28.5487V25.6922H28.3965L20.0223 37.7967H17.1675V20.0396H20.3649Z" fill="#333333"/>
<path d="M45.126 34.1424L49.0847 24.474H52.8912V37.7966H49.9031V28.7182L46.2299 37.7966H44.0412L40.5012 28.8133V37.7966H37.4751V24.474H41.2815L45.126 34.1424Z" fill="#333333"/>
<path d="M58.4102 37.7966V24.474H69.6582V37.7966H66.6321V27.0433H61.4172V37.7966H58.4102Z" fill="#333333"/>
<path d="M74.3013 37.7966L74.2822 35.2082H74.739C75.1958 35.2082 75.5764 35.0749 75.8429 34.7704C76.1093 34.4849 76.3187 33.9901 76.4709 33.2859C76.6042 32.5817 76.6993 31.6111 76.7564 30.374L76.9848 24.474H86.6912V37.7966H83.6651V27.0624H79.8396L79.6303 31.3446C79.5351 33.5714 79.1354 35.1891 78.4503 36.2359C77.7651 37.2827 76.6993 37.7966 75.2719 37.7966H74.3013Z" fill="#333333"/>
<path d="M98.0159 38.044C96.7217 38.044 95.5798 37.7585 94.6282 37.1875C93.6766 36.6166 92.9343 35.8172 92.4205 34.7895C91.8876 33.7617 91.6401 32.5627 91.6401 31.1924C91.6401 29.8221 91.9066 28.604 92.4205 27.5763C92.9343 26.5485 93.6766 25.7492 94.6282 25.1592C95.5798 24.5882 96.7027 24.3027 98.0159 24.3027C99.3101 24.3027 100.452 24.5882 101.404 25.1592C102.355 25.7302 103.098 26.5295 103.611 27.5763C104.125 28.604 104.392 29.803 104.392 31.1924C104.392 32.5627 104.125 33.7617 103.611 34.7895C103.098 35.8172 102.355 36.6166 101.404 37.1875C100.452 37.7585 99.3292 38.044 98.0159 38.044ZM98.035 35.5317C98.7392 35.5317 99.3292 35.3414 99.805 34.9417C100.281 34.5611 100.623 34.0282 100.852 33.3621C101.08 32.6959 101.194 31.9727 101.194 31.1543C101.194 30.3359 101.08 29.5937 100.852 28.9466C100.623 28.2805 100.262 27.7666 99.805 27.3669C99.3292 26.9672 98.7392 26.7769 98.035 26.7769C97.3117 26.7769 96.7217 26.9672 96.2459 27.3669C95.7701 27.7666 95.4085 28.2805 95.1801 28.9466C94.9517 29.6127 94.8185 30.355 94.8185 31.1543C94.8185 31.9537 94.9327 32.6959 95.1801 33.3621C95.4085 34.0282 95.7701 34.5421 96.2459 34.9417C96.7217 35.3414 97.3308 35.5317 98.035 35.5317Z" fill="#333333"/>
<path d="M109.396 37.7966V24.474H114.992C116.572 24.474 117.809 24.7975 118.722 25.4256C119.636 26.0537 120.093 26.9292 120.093 28.0521C120.093 28.7943 119.826 29.4033 119.312 29.8791C118.798 30.3359 118.094 30.6595 117.2 30.8308C118.246 30.9259 119.103 31.2685 119.75 31.8775C120.397 32.4866 120.74 33.2479 120.74 34.1804C120.74 35.2843 120.321 36.1598 119.465 36.8069C118.608 37.454 117.409 37.7966 115.848 37.7966H109.396ZM112.346 29.9933H115.068C115.696 29.9933 116.21 29.8601 116.572 29.5746C116.933 29.3082 117.124 28.9275 117.124 28.4517C117.124 27.995 116.933 27.6333 116.553 27.3669C116.172 27.1004 115.658 26.9863 115.011 26.9863H112.366V29.9933H112.346ZM112.346 35.3224H115.867C116.438 35.3224 116.895 35.1891 117.238 34.9037C117.561 34.6372 117.733 34.2566 117.733 33.7808C117.733 33.2288 117.561 32.7911 117.238 32.4866C116.914 32.163 116.457 32.0108 115.867 32.0108H112.346V35.3224Z" fill="#333333"/>
<path d="M128.716 33.5333L134.045 24.474H137.28V37.7966H134.254V28.7182L128.925 37.7966H125.689V24.474H128.716V33.5333Z" fill="#333333"/>
<path d="M141.352 27.0433V24.474H153V27.0433H148.698V37.7966H145.653V27.0433H141.352Z" fill="#333333"/>
</svg>
