<svg width="235" height="17" viewBox="0 0 235 17" fill="none" xmlns="http://www.w3.org/2000/svg">
<path d="M2.66318 14.4246L4.65235 9.90376L0 0.352478H2.28507L4.78386 5.38293L5.81954 7.63512L6.72371 5.41581L8.89371 0.352478H11.1952L4.8825 14.4246H2.66318Z" fill="#46C0C1"/>
<path d="M22.3453 6.27066H24.4496C25.8469 6.27066 26.373 5.1199 26.373 4.1993C26.373 2.67043 25.0249 2.14437 23.7098 2.14437C22.6412 2.14437 21.5562 2.75263 21.2932 3.83763L19.4684 3.39377C19.9781 1.27309 21.8357 0.204529 23.7098 0.204529C26.1264 0.204529 28.3621 1.35528 28.395 4.1993C28.395 5.30074 28.132 6.45149 27.1128 7.12551C28.3786 7.86528 29.0197 8.9996 29.0033 10.4956C28.9868 12.5176 27.2114 14.5726 23.8413 14.5726C20.8329 14.5726 19.4027 12.83 19.0903 10.9066L20.9809 10.5613C21.1617 11.6792 22.0823 12.682 23.8578 12.682C26.0935 12.682 27.0141 11.4655 27.0141 10.2983C27.0141 9.29551 26.3072 8.12831 24.4825 8.12831H22.3782V6.27066H22.3453Z" fill="#46C0C1"/>
<path d="M43.5963 12.4191V16.6605H41.6071V14.4083H33.2559V16.6605H31.2339V12.7808L32.3518 12.5671C33.1573 11.7287 33.4368 9.92036 33.5518 8.63809L34.0943 0.36908H42.4455V12.4356H43.5963V12.4191ZM40.3577 12.4191V2.30893H36.0177L35.7218 7.3065C35.6232 9.49294 35.541 11.2026 34.6368 12.4191H40.3577Z" fill="#46C0C1"/>
<path d="M47.9799 2.29207C49.2622 0.993355 51.0705 0.171387 53.0432 0.171387C55.0324 0.171387 56.8243 0.993355 58.123 2.29207C59.3888 3.59078 60.2108 5.38267 60.2108 7.37184C60.2108 9.361 59.3888 11.1529 58.123 12.4516C56.8243 13.7832 55.0324 14.5723 53.0432 14.5723C51.0705 14.5723 49.2622 13.7668 47.9799 12.4516C46.7141 11.1529 45.8921 9.361 45.8921 7.37184C45.8921 5.38267 46.7141 3.60722 47.9799 2.29207ZM56.6763 3.73874C55.7393 2.80169 54.4241 2.20987 53.0432 2.20987C51.6623 2.20987 50.38 2.78525 49.443 3.73874C48.5224 4.65934 47.9306 5.94161 47.9306 7.37184C47.9306 8.80206 48.506 10.0843 49.443 11.0049C50.3636 11.942 51.6459 12.5338 53.0432 12.5338C54.4241 12.5338 55.7393 11.9584 56.6763 11.0049C57.5805 10.0843 58.1559 8.8185 58.1559 7.37184C58.1559 5.92517 57.5805 4.67578 56.6763 3.73874Z" fill="#46C0C1"/>
<path d="M68.1773 0.352478C71.2021 0.352478 72.731 2.70331 72.731 5.05414C72.731 7.40498 71.2021 9.72293 68.1773 9.72293H65.0867V14.4082H63.0317V0.352478H68.1773ZM68.1773 7.71732C69.887 7.71732 70.7254 6.38573 70.7254 5.07058C70.7254 3.72255 69.887 2.4074 68.1773 2.4074H65.0867V7.73376H68.1773V7.71732Z" fill="#46C0C1"/>
<path d="M77.3285 2.29207C78.6108 0.993355 80.4191 0.171387 82.3919 0.171387C84.381 0.171387 86.1729 0.993355 87.4716 2.29207C88.7375 3.59078 89.5594 5.38267 89.5594 7.37184C89.5594 9.361 88.7375 11.1529 87.4716 12.4516C86.1729 13.7832 84.381 14.5723 82.3919 14.5723C80.4191 14.5723 78.6108 13.7668 77.3285 12.4516C76.0627 11.1529 75.2407 9.361 75.2407 7.37184C75.2407 5.38267 76.0627 3.60722 77.3285 2.29207ZM86.025 3.73874C85.0879 2.80169 83.7728 2.20987 82.3919 2.20987C81.0109 2.20987 79.7287 2.78525 78.7916 3.73874C77.871 4.65934 77.2792 5.94161 77.2792 7.37184C77.2792 8.80206 77.8546 10.0843 78.7916 11.0049C79.7122 11.942 80.9945 12.5338 82.3919 12.5338C83.7728 12.5338 85.0879 11.9584 86.025 11.0049C86.9291 10.0843 87.5045 8.8185 87.5045 7.37184C87.5045 5.92517 86.9291 4.67578 86.025 3.73874Z" fill="#46C0C1"/>
<path d="M98.1513 0.352478C101.488 0.352478 103.182 4.69248 100.519 6.68164C102.13 7.3721 102.721 8.85164 102.721 10.1668C102.721 12.271 101.34 14.4082 98.6444 14.4082H92.2988V0.352478H98.1513ZM94.3209 5.95831H98.1184C100.321 5.95831 100.371 2.29232 98.1513 2.29232H94.3209V5.95831ZM94.3209 12.4354H98.6609C100.025 12.4354 100.716 11.2847 100.716 10.1832C100.716 9.08179 100.025 7.94747 98.6609 7.94747H94.3209V12.4354Z" fill="#46C0C1"/>
<path d="M106.311 14.4082V0.352478H108.365V5.0377H111.456C114.481 5.0377 116.01 7.3721 116.01 9.70649C116.01 12.0573 114.481 14.4082 111.456 14.4082H106.311ZM108.365 7.04331V12.4025H111.456C113.166 12.4025 114.004 11.0381 114.004 9.69005C114.004 8.35846 113.166 7.04331 111.456 7.04331H108.365Z" fill="#46C0C1"/>
<path d="M125.457 8.24355L120.344 14.4083H117.714L122.153 9.13127C119.736 8.70385 118.519 6.82976 118.519 4.84059C118.519 2.60483 120.048 0.36908 123.09 0.36908H128.202V14.4248H126.18V2.424H123.09C121.38 2.424 120.541 3.64052 120.541 4.85703C120.541 6.07354 121.38 7.3065 123.09 7.3065H125.457V8.24355Z" fill="#46C0C1"/>
<path d="M137.908 12.3697H144.418V14.4082H135.854V0.352478H144.402V2.37452H137.908V6.33641H144.27V8.3749H137.908V12.3697Z" fill="#46C0C1"/>
<path d="M148.73 2.37418C149.963 1.10834 151.689 0.286377 153.596 0.286377C156.802 0.286377 159.334 2.29198 160.139 5.46478H158.134C157.394 3.36054 155.668 2.29198 153.596 2.29198C152.248 2.29198 151.032 2.86736 150.144 3.8044C149.256 4.72501 148.697 5.9744 148.697 7.42107C148.697 8.81842 149.256 10.0678 150.144 10.9884C151.032 11.909 152.248 12.5008 153.596 12.5008C155.717 12.5008 157.525 11.2843 158.249 9.14721H160.238C159.432 12.3364 156.868 14.5064 153.596 14.5064C151.689 14.5064 149.963 13.7009 148.73 12.4186C147.53 11.1364 146.725 9.36092 146.725 7.42107C146.725 5.4319 147.53 3.65645 148.73 2.37418Z" fill="#46C0C1"/>
<path d="M165.225 14.4082V2.27588H160.967V0.352478H171.488V2.27588H167.247V14.4082H165.225Z" fill="#46C0C1"/>
<path d="M174.114 14.4082V0.352478H176.169V5.0377H179.26C182.285 5.0377 183.813 7.3721 183.813 9.70649C183.813 12.0573 182.285 14.4082 179.26 14.4082H174.114ZM176.153 7.04331V12.4025H179.243C180.953 12.4025 181.791 11.0381 181.791 9.69005C181.791 8.35846 180.953 7.04331 179.243 7.04331H176.153Z" fill="#46C0C1"/>
<path d="M202.01 14.4082V4.59384L195.237 14.4082H193.626V0.352478H195.632V10.249L202.47 0.352478H204.049V14.4082H202.01Z" fill="#46C0C1"/>
<path d="M211.195 14.4081H209.173V0.352417H210.817L215.453 7.17476L220.089 0.352417H221.7V14.4081H219.695V4.51158L216.012 9.96946H214.878L211.195 4.51158V14.4081Z" fill="#46C0C1"/>
<path d="M232.255 8.24348L227.142 14.4083H224.512L228.95 9.13121C226.534 8.70379 225.317 6.82969 225.317 4.84053C225.317 2.60477 226.846 0.369019 229.887 0.369019H235V14.4247H232.978V2.42394H229.887C228.178 2.42394 227.339 3.64045 227.339 4.85697C227.339 6.07348 228.178 7.30644 229.887 7.30644H232.255V8.24348Z" fill="#46C0C1"/>
</svg>
